<svg version="1.2" xmlns="http://www.w3.org/2000/svg" viewBox="0 0 1280 141" width="1280" height="141">
	<title>New Project</title>
	<style>
		.s0 { fill: #000000 } 
	</style>
	<path id="Case studies." class="s0" aria-label="Case studies."  d="m176.2 48.6c-1.5-19.4-17.4-46.5-56.8-46.5-33.8 0-60.3 23.5-60.3 69.4 0 45.4 25 69 60 69 32.9 0 51.6-20 57.1-48.5h-27.5c-3.3 16.1-13.9 24.7-29.1 24.7-23.2 0-32.5-21.2-32.5-44.8 0-37.2 19.3-46 32.5-46 22.7 0 26.9 14.8 29.1 22.7zm97.7 16.7c0-24-25-28.2-38.8-28.2-19.9 0-40.6 4.2-43.5 34h24.7c0.7-5.7 2.9-13.5 15.7-13.5 6.6 0 16.9 0.5 16.9 11.3 0 5.5-5 7.2-9 7.7l-23.1 3.5c-16.2 2.4-28.3 12.1-28.3 31.1 0 20.1 15 28.4 29.6 28.4 17.4 0 25.6-8.1 31.5-14.1 0.6 5.5 0.9 6.9 2.4 11.5h27.6v-3.8c-3.1-1.1-5.7-3.7-5.7-15.2zm-25 36.8c0 11.8-11.6 19.2-22.9 19.2-4.9 0-11.9-2.8-11.9-11.7 0-10.7 7.9-13 17.4-14.7 10.6-1.6 14.8-3.3 17.4-5.3zm128.1-32.7c-2-27.5-24.7-32.3-43.8-32.3-30.3 0-39.3 18.3-39.3 32.6 0 36.4 60.4 24.2 60.4 40.5 0 3.6-3.1 10-16.3 10-16.1 0-21.2-6-21.2-14.2h-26.4c0.7 25.9 24.7 33.6 46.9 33.6 15.2 0 42.6-5.1 42.6-33.5 0-35.8-60.9-24.7-60.9-40 0-4.3 1.8-9.6 15.7-9.6 13.9 0 16.1 6.6 17.2 12.9zm78.9 39.1c-2 7-9.4 10.6-16.5 10.6-20.7 0-22.1-16.4-22.9-23.8h66.8v-4.5c0-44.5-26.5-53.7-45.7-53.7-42.7 0-46.7 37.6-46.7 49.3 0 40 21.1 53.2 48.5 53.2 16.7 0 36.1-7.7 42.8-31.1zm-38.6-29.8c1.5-12.8 7.9-20.5 20-20.5 8.2 0 18.3 4.7 19.7 20.5zm214.1-9.3c-2-27.5-24.7-32.3-43.7-32.3-30.4 0-39.3 18.3-39.3 32.6 0 36.4 60.3 24.2 60.3 40.5 0 3.6-3.1 10-16.2 10-16.1 0-21.3-6-21.3-14.2h-26.3c0.7 25.9 24.7 33.6 46.8 33.6 15.2 0 42.7-5.1 42.7-33.5 0-35.8-61-24.7-61-40 0-4.3 1.9-9.6 15.8-9.6 13.9 0 16.1 6.6 17.2 12.9zm50.3-56h-25.6v26.3h-13.2v18.3h13.2v59.1c0 12.6 4 21.1 26.1 21.1h3.3c4.1 0 8.1-0.2 12.1-0.4v-19.4c-1.8 0.2-3.6 0.4-5.3 0.4-10.4 0-10.6-2.2-10.6-7.9v-52.9h15.9v-18.3h-15.9zm120 26.4h-25.6v56.1c0 17.4-11.3 22.2-19.7 22.2-7.9 0-16.7-2.9-16.7-18v-60.3h-25.6v64c0 24.9 13.9 35.9 33.1 35.9 13.5 0 23.8-5.9 29.6-16.3h0.4v13.7h24.5zm112.9-34h-25.6v46.6h-0.3c-4.1-6.2-11.7-15.1-28.2-15.1-21.4 0-40.5 16.4-40.5 50.1 0 26.7 12.1 52.3 41 52.3 10.6 0 22-3.8 28.2-14.8h0.4v12.3h25zm-68.2 83.4c0-15.4 5.5-29.8 21.8-29.8 17.5 0 21.9 15.7 21.9 31.3 0 14.4-6.4 28-22.7 28-16.4 0-21-18-21-29.5zm91.9-49.4v97.4h25.6v-97.4zm25.6-35.3h-25.6v23.8h25.6zm81.8 104.1c-2 7-9.3 10.6-16.5 10.6-20.7 0-22.1-16.5-22.8-23.8h66.7v-4.5c0-44.5-26.5-53.7-45.7-53.7-42.6 0-46.7 37.5-46.7 49.3 0 40 21.1 53.2 48.5 53.2 16.7 0 36.1-7.7 42.8-31.1zm-38.6-29.8c1.5-12.8 7.9-20.5 20-20.5 8.2 0 18.3 4.7 19.7 20.5zm163.3-9.4c-2-27.4-24.7-32.2-43.8-32.2-30.3 0-39.3 18.3-39.3 32.6 0 36.4 60.4 24.2 60.4 40.5 0 3.6-3.1 10-16.3 10-16.1 0-21.2-6-21.2-14.3h-26.4c0.8 26 24.7 33.7 46.9 33.7 15.2 0 42.6-5.1 42.6-33.5 0-35.8-60.9-24.7-60.9-40.1 0-4.2 1.8-9.5 15.7-9.5 13.9 0 16.1 6.6 17.2 12.8zm48.9 41h-27.5v26.8h27.5z"/>
</svg>