<svg version="1.2" xmlns="http://www.w3.org/2000/svg" viewBox="0 0 1162 141" width="1162" height="141">
	<title>New Project</title>
	<style>
		.s0 { fill: #000000 } 
	</style>
	<path id="Case studies." class="s0" aria-label="Case studies."  d="m115.6 102.1v27.6q-9.5 4.9-19.8 7.4-10.2 2.5-21.4 2.5-33.3 0-52.8-18.6-19.5-18.7-19.5-50.6 0-32 19.5-50.5 19.5-18.7 52.8-18.7 11.2 0 21.4 2.5 10.3 2.5 19.8 7.4v27.6q-9.6-6.5-18.9-9.6-9.3-3-19.5-3-18.4 0-29 11.8-10.5 11.8-10.5 32.5 0 20.7 10.5 32.5 10.6 11.8 29 11.8 10.2 0 19.5-3.1 9.3-3 18.9-9.5zm88.5-10.1h-16.6q-10 0-15.1 3.4-5 3.4-5 10 0 6 4 9.5 4.2 3.4 11.4 3.4 9 0 15.2-6.4 6.1-6.5 6.1-16.3zm32.3-12v57.1h-32.3v-14.9q-6.4 9.1-14.4 13.3-8.1 4.2-19.6 4.2-15.5 0-25.3-9.1-9.6-9.1-9.6-23.6 0-17.6 12-25.8 12.2-8.2 38.1-8.2h18.8v-2.5q0-7.6-5.9-11.1-6-3.6-18.7-3.6-10.3 0-19.1 2.1-8.9 2-16.5 6.2v-24.4q10.3-2.5 20.7-3.8 10.3-1.3 20.7-1.3 27.1 0 39 10.7 12.1 10.6 12.1 34.7zm107.9-39.9v24.3q-10.2-4.3-19.8-6.4-9.6-2.2-18-2.2-9.2 0-13.6 2.4-4.4 2.2-4.4 6.9 0 3.9 3.3 5.9 3.4 2.1 12.1 3.1l5.6 0.8q24.6 3.1 33.1 10.2 8.4 7.2 8.4 22.5 0 16-11.7 24-11.8 8.1-35.3 8.1-9.9 0-20.5-1.6-10.5-1.6-21.7-4.7v-24.3q9.5 4.6 19.6 7 10 2.3 20.4 2.3 9.4 0 14.1-2.6 4.8-2.6 4.8-7.7 0-4.3-3.3-6.3-3.3-2.2-13-3.3l-5.6-0.8q-21.4-2.6-30-9.9-8.5-7.2-8.5-22 0-15.9 10.9-23.5 10.9-7.7 33.4-7.7 8.8 0 18.6 1.3 9.7 1.4 21.1 4.2zm130.7 46.7v9.1h-74.8q1.2 11.2 8.1 16.9 7 5.6 19.5 5.6 10.1 0 20.6-3 10.7-3 21.8-9.1v24.7q-11.3 4.3-22.6 6.5-11.4 2.2-22.7 2.2-27.2 0-42.3-13.8-15-13.9-15-38.8 0-24.5 14.7-38.5 14.9-14 40.8-14 23.6 0 37.7 14.2 14.2 14.2 14.2 38zm-74.4-10.7h41.5q0-9.1-5.4-14.6-5.2-5.7-13.8-5.7-9.3 0-15.1 5.3-5.8 5.2-7.2 15zm240.5-36v24.3q-10.3-4.3-19.8-6.4-9.6-2.2-18.1-2.2-9.1 0-13.6 2.4-4.4 2.2-4.4 6.9 0 3.9 3.4 5.9 3.3 2.1 12 3.1l5.6 0.8q24.6 3.1 33.1 10.2 8.5 7.2 8.5 22.5 0 16-11.8 24-11.8 8.1-35.2 8.1-9.9 0-20.6-1.6-10.5-1.6-21.7-4.7v-24.3q9.6 4.6 19.6 7 10.1 2.3 20.5 2.3 9.3 0 14.1-2.6 4.7-2.6 4.7-7.7 0-4.3-3.3-6.3-3.2-2.2-12.9-3.3l-5.7-0.8q-21.3-2.6-29.9-9.9-8.6-7.2-8.6-22 0-15.9 10.9-23.5 10.9-7.7 33.4-7.7 8.9 0 18.6 1.3 9.8 1.4 21.2 4.2zm33.7-31.5h32v28.4h32.9v22.9h-32.9v42.4q0 7 2.7 9.5 2.8 2.4 11 2.4h16.5v22.9h-27.5q-18.9 0-26.9-7.9-7.8-8-7.8-26.9v-42.4h-15.9v-22.9h15.9zm83.4 89.5v-61.1h32.2v10q0 8.1-0.1 20.5-0.1 12.2-0.1 16.3 0 12.1 0.7 17.4 0.6 5.3 2.1 7.7 2 3.2 5.1 4.9 3.2 1.7 7.3 1.7 10 0 15.7-7.7 5.8-7.7 5.8-21.4v-49.4h32v100.1h-32v-14.5q-7.3 8.8-15.4 13-8 4.1-17.8 4.1-17.3 0-26.4-10.7-9.1-10.6-9.1-30.9zm199.5-46.4v-53.7h32.1v139.1h-32.1v-14.5q-6.6 8.8-14.6 13-7.9 4.1-18.4 4.1-18.5 0-30.4-14.7-11.9-14.7-11.9-37.9 0-23.1 11.9-37.8 11.9-14.7 30.4-14.7 10.4 0 18.3 4.2 8.1 4.1 14.7 12.9zm-21.1 64.7q10.3 0 15.6-7.5 5.5-7.5 5.5-21.8 0-14.3-5.5-21.8-5.3-7.5-15.6-7.5-10.2 0-15.6 7.5-5.4 7.5-5.4 21.8 0 14.3 5.4 21.8 5.4 7.5 15.6 7.5zm84 20.7v-100.1h32v100.1zm0-113v-26.1h32v26.1zm162.6 62.7v9.1h-74.8q1.2 11.2 8.1 16.9 7 5.6 19.5 5.6 10.1 0 20.7-2.9 10.6-3.1 21.8-9.2v24.7q-11.4 4.3-22.7 6.5-11.4 2.2-22.7 2.2-27.2 0-42.3-13.8-15-13.8-15-38.8 0-24.5 14.7-38.5 14.9-14 40.8-14 23.6 0 37.7 14.2 14.2 14.2 14.2 38zm-74.4-10.7h41.5q0-9.1-5.4-14.6-5.2-5.6-13.8-5.6-9.3 0-15.1 5.2-5.8 5.2-7.2 15zm176.8-36v24.3q-10.3-4.3-19.8-6.4-9.6-2.1-18.1-2.1-9.1 0-13.6 2.3-4.4 2.2-4.4 6.9 0 3.9 3.4 5.9 3.3 2.1 12 3.1l5.6 0.8q24.6 3.1 33.1 10.3 8.5 7.1 8.5 22.4 0 16-11.8 24-11.8 8.1-35.2 8.1-9.9 0-20.6-1.5-10.5-1.7-21.7-4.8v-24.3q9.6 4.7 19.6 7 10.1 2.3 20.5 2.3 9.3 0 14.1-2.6 4.7-2.6 4.7-7.7 0-4.3-3.3-6.3-3.2-2.2-12.9-3.3l-5.7-0.7q-21.3-2.7-29.9-10-8.6-7.2-8.6-21.9 0-15.9 10.9-23.6 10.9-7.7 33.4-7.7 8.9 0 18.6 1.3 9.8 1.4 21.2 4.2zm34 97v-34.6h32.2v34.6z"/>
</svg>