<?xml version="1.0" encoding="UTF-8"?> <svg xmlns="http://www.w3.org/2000/svg" id="uuid-a0747cde-88d3-4903-8cda-23a6a1fab916" viewBox="0 0 764 111.17"><g id="uuid-a2ad9510-bd97-4cca-a95d-e0c60d8af372"><g><path d="M121.29,37.52l-16.49-20.76h-29.92C73.69,7.33,65.63,0,55.88,0c-10.56,0-19.16,8.6-19.16,19.16s8.59,19.16,19.16,19.16c9.2,0,16.89-6.51,18.73-15.17h27.1l16.49,20.76h52.63v-6.39h-49.55Zm-65.41-5.59c-7.04,0-12.77-5.73-12.77-12.77s5.73-12.77,12.77-12.77,12.77,5.73,12.77,12.77-5.73,12.77-12.77,12.77Z"></path><path d="M107.82,104.78h-34.16l-12.62-20.96h-22.88c-1.18-9.44-9.24-16.76-18.99-16.76-10.56,0-19.16,8.6-19.16,19.16s8.6,19.16,19.16,19.16c9.2,0,16.89-6.51,18.73-15.17h19.53l12.62,20.96h41.15l11.04-16.17h48.61v-6.39h-51.98l-11.04,16.17Zm-88.66-5.79c-7.04,0-12.77-5.73-12.77-12.77s5.73-12.77,12.77-12.77,12.77,5.73,12.77,12.77-5.73,12.77-12.77,12.77Z"></path><path d="M98.99,46.3c-10.56,0-19.16,8.6-19.16,19.16s8.6,19.16,19.16,19.16c9.47,0,17.34-6.92,18.87-15.97h52.98v-6.39h-52.98c-1.53-9.05-9.4-15.97-18.87-15.97Zm0,31.93c-7.04,0-12.77-5.73-12.77-12.77s5.73-12.77,12.77-12.77,12.77,5.73,12.77,12.77-5.73,12.77-12.77,12.77Z"></path></g><g><path d="M225.51,94.76c-1.22,0-1.63-.33-1.63-1.63v-24.34c0-.57-.24-.81-.81-.81h-30.86c-.57,0-.81,.24-.81,.81v24.34c0,1.3-.41,1.63-1.63,1.63h-2.04c-1.22,0-1.63-.33-1.63-1.63V39.4c0-1.3,.41-1.63,1.63-1.63h2.04c1.22,0,1.63,.33,1.63,1.63v22.63c0,.57,.24,.81,.81,.81h30.86c.57,0,.81-.24,.81-.81v-22.63c0-1.3,.41-1.63,1.63-1.63h2.04c1.22,0,1.63,.33,1.63,1.63v53.74c0,1.3-.41,1.63-1.63,1.63h-2.04Z"></path><path d="M246.11,94.76c-1.22,0-1.63-.33-1.63-1.63V39.4c0-1.3,.41-1.63,1.63-1.63h2.04c1.22,0,1.63,.33,1.63,1.63v53.74c0,1.3-.41,1.63-1.63,1.63h-2.04Z"></path><path d="M283.73,42.98c-.57,0-.81,.24-.81,.81v49.34c0,1.3-.41,1.63-1.63,1.63h-2.04c-1.22,0-1.63-.33-1.63-1.63V43.79c0-.57-.24-.81-.81-.81h-16.53c-1.22,0-1.63-.33-1.63-1.63v-1.95c0-1.3,.41-1.63,1.63-1.63h39.98c1.22,0,1.63,.33,1.63,1.63v1.95c0,1.3-.41,1.63-1.63,1.63h-16.53Z"></path><path d="M310.44,70.99v-31.59c0-1.3,.41-1.63,1.63-1.63h2.04c1.22,0,1.63,.33,1.63,1.63v31.35c0,12.21,6.11,19.62,16.94,19.62s17.18-7.41,17.18-19.46v-31.51c0-1.3,.41-1.63,1.63-1.63h2.04c1.22,0,1.63,.33,1.63,1.63v31.26c0,16.45-9.53,24.91-22.72,24.91s-21.98-8.06-21.98-24.59Z"></path><path d="M402.54,44.28c0,.24-.16,.65-.57,1.06l-1.47,1.79c-.41,.57-.73,.81-1.06,.81-.41,0-.81-.16-1.22-.57-4.56-3.26-9.2-5.21-14.49-5.21-7.17,0-12.21,3.83-12.21,10.26s4.15,8.63,13.92,11.15c12.29,3.18,17.5,7.17,17.5,15.8,0,9.61-8.55,16.2-20.11,16.2-7.08,0-13.35-2.77-18.56-7.08-.57-.41-.81-.73-.81-1.14,0-.33,.16-.73,.57-1.14l1.55-1.87c.41-.49,.73-.73,1.06-.73,.24,0,.57,.16,1.06,.57,5.13,4.15,10.26,6.19,15.39,6.19,8.63,0,14.25-4.15,14.25-10.67,0-5.94-3.42-8.39-14-11.07-11.64-3.09-17.18-6.19-17.42-15.88,0-9.69,7.98-15.8,17.99-15.8,6.51,0,12.46,2.04,17.83,6.19,.57,.41,.81,.73,.81,1.14Z"></path><path d="M434.54,42.98c-.57,0-.81,.24-.81,.81v49.34c0,1.3-.41,1.63-1.63,1.63h-2.04c-1.22,0-1.63-.33-1.63-1.63V43.79c0-.57-.24-.81-.81-.81h-16.53c-1.22,0-1.63-.33-1.63-1.63v-1.95c0-1.3,.41-1.63,1.63-1.63h39.98c1.22,0,1.63,.33,1.63,1.63v1.95c0,1.3-.41,1.63-1.63,1.63h-16.53Z"></path><path d="M494.06,93.13c0,1.3-.41,1.63-1.63,1.63h-29.23c-1.22,0-1.63-.33-1.63-1.63V39.4c0-1.3,.41-1.63,1.63-1.63h29.15c1.22,0,1.63,.33,1.63,1.63v1.95c0,1.3-.41,1.63-1.63,1.63h-24.67c-.57,0-.81,.24-.81,.81v18.89c0,.57,.24,.81,.81,.81h21.9c1.22,0,1.63,.33,1.63,1.63v1.87c0,1.3-.41,1.63-1.63,1.63h-21.9c-.57,0-.81,.24-.81,.81v19.3c0,.57,.24,.81,.81,.81h24.75c1.22,0,1.63,.33,1.63,1.63v1.95Z"></path><path d="M503.19,94.76h-1.47c-1.06,0-1.63-.33-1.63-1.06,0-.24,.16-.65,.41-1.3l23.86-51.62c1.47-3.18,1.95-3.99,2.85-3.99,.73,0,1.3,.81,2.77,3.99l24.02,51.62c.24,.65,.41,1.06,.41,1.3,0,.73-.57,1.06-1.63,1.06h-1.71c-1.63,0-2.12-.41-3.01-2.36l-20.92-45.76-20.93,45.76c-.89,1.95-1.38,2.36-3.01,2.36Z"></path><path d="M576.64,42.98c-.57,0-.82,.24-.82,.81v49.34c0,1.3-.41,1.63-1.63,1.63h-2.03c-1.22,0-1.63-.33-1.63-1.63V43.79c0-.57-.24-.81-.81-.81h-16.53c-1.22,0-1.63-.33-1.63-1.63v-1.95c0-1.3,.41-1.63,1.63-1.63h39.98c1.22,0,1.63,.33,1.63,1.63v1.95c0,1.3-.41,1.63-1.63,1.63h-16.53Z"></path><path d="M605.3,94.76c-1.22,0-1.63-.33-1.63-1.63V39.4c0-1.3,.41-1.63,1.63-1.63h2.03c1.22,0,1.63,.33,1.63,1.63v53.74c0,1.3-.41,1.63-1.63,1.63h-2.03Z"></path><path d="M657.33,44.28c0,.24-.16,.65-.57,1.06l-1.47,1.79c-.41,.57-.73,.81-1.06,.81-.41,0-.81-.16-1.22-.57-4.56-3.26-9.2-5.21-14.49-5.21-7.16,0-12.21,3.83-12.21,10.26s4.15,8.63,13.92,11.15c12.29,3.18,17.5,7.17,17.5,15.8,0,9.61-8.55,16.2-20.11,16.2-7.08,0-13.35-2.77-18.56-7.08-.57-.41-.82-.73-.82-1.14,0-.33,.16-.73,.57-1.14l1.55-1.87c.41-.49,.73-.73,1.06-.73,.24,0,.57,.16,1.06,.57,5.13,4.15,10.26,6.19,15.39,6.19,8.63,0,14.25-4.15,14.25-10.67,0-5.94-3.42-8.39-14-11.07-11.64-3.09-17.18-6.19-17.42-15.88,0-9.69,7.98-15.8,17.99-15.8,6.51,0,12.46,2.04,17.83,6.19,.57,.41,.81,.73,.81,1.14Z"></path><path d="M674.51,91.75c0,2.2-1.55,3.66-3.75,3.66-2.04,0-3.75-1.47-3.75-3.66s1.71-3.75,3.75-3.75c2.2,0,3.75,1.47,3.75,3.75Z"></path><path d="M719.05,93.13c0,1.3-.41,1.63-1.63,1.63h-29.23c-1.22,0-1.63-.33-1.63-1.63V39.4c0-1.3,.41-1.63,1.63-1.63h29.15c1.22,0,1.63,.33,1.63,1.63v1.95c0,1.3-.41,1.63-1.63,1.63h-24.67c-.57,0-.81,.24-.81,.81v18.89c0,.57,.24,.81,.81,.81h21.9c1.22,0,1.63,.33,1.63,1.63v1.87c0,1.3-.41,1.63-1.63,1.63h-21.9c-.57,0-.81,.24-.81,.81v19.3c0,.57,.24,.81,.81,.81h24.75c1.22,0,1.63,.33,1.63,1.63v1.95Z"></path><path d="M764,93.13c0,1.3-.41,1.63-1.63,1.63h-29.23c-1.22,0-1.63-.33-1.63-1.63V39.4c0-1.3,.41-1.63,1.63-1.63h29.15c1.22,0,1.63,.33,1.63,1.63v1.95c0,1.3-.41,1.63-1.63,1.63h-24.67c-.57,0-.81,.24-.81,.81v18.89c0,.57,.24,.81,.81,.81h21.9c1.22,0,1.63,.33,1.63,1.63v1.87c0,1.3-.41,1.63-1.63,1.63h-21.9c-.57,0-.81,.24-.81,.81v19.3c0,.57,.24,.81,.81,.81h24.75c1.22,0,1.63,.33,1.63,1.63v1.95Z"></path></g></g></svg> 