<?xml version="1.0" encoding="UTF-8"?><svg id="Layer_2" xmlns="http://www.w3.org/2000/svg" xmlns:xlink="http://www.w3.org/1999/xlink" viewBox="0 0 319.31 149.15"><defs><style>.cls-1,.cls-2,.cls-3{fill:none;}.cls-4{fill:url(#linear-gradient);}.cls-2{clip-path:url(#clippath-1);}.cls-5{fill:#c4151c;}.cls-6{fill:#231f20;}.cls-7{fill:url(#linear-gradient-2);}.cls-3{clip-path:url(#clippath);}</style><clipPath id="clippath"><path class="cls-1" d="m101.52,107.94c-5.15-27.42,12.89-53.83,40.31-58.99,17.1-3.22,33.8,2.6,45.21,14.08-11.55-17.23-32.62-26.87-54.3-22.8-29.01,5.45-48.11,33.39-42.65,62.4,4.08,21.67,20.71,37.81,40.96,42.31-14.83-6.45-26.32-19.9-29.53-37.01"/></clipPath><linearGradient id="linear-gradient" x1="-122.76" y1="534.99" x2="-121.76" y2="534.99" gradientTransform="translate(56653.04 -12823.66) rotate(-90) scale(105.64 -105.64)" gradientUnits="userSpaceOnUse"><stop offset="0" stop-color="#808284"/><stop offset="1" stop-color="#e8e9ea"/></linearGradient><clipPath id="clippath-1"><path class="cls-1" d="m115.28,0c-29.93,0-55.73,17.64-67.6,43.08h-.01c-7.97,17.41-25.49,29.53-45.89,29.53-.6,0-1.18-.07-1.77-.09,8.75,6.34,19.48,10.11,31.11,10.11,3.04,0,6.01-.26,8.91-.75-8.56,8.51-20.34,13.79-33.37,13.79-.56,0-1.11-.07-1.67-.08,8.22,5.95,18.3,9.5,29.23,9.5,3.99,0,7.86-.5,11.58-1.38-7.8,8.62-19.04,14.05-31.59,14.05-.51,0-1-.06-1.5-.07,7.4,5.36,16.48,8.55,26.32,8.55,5.07,0,9.93-.85,14.47-2.4-6.67,9.25-17.5,15.29-29.78,15.29-.44,0-.86-.05-1.29-.06,6.37,4.61,14.18,7.36,22.65,7.36,3.75,0,7.35-.56,10.77-1.55,5.41-1.87,11.18-2.93,17.22-2.93s12.11,1.12,17.64,3.08h.23c7.63,2.65,15.8,4.12,24.34,4.12,3.1,0,6.15-.21,9.15-.58-24.21-7.32-41.85-29.79-41.85-56.39,0-32.54,26.38-58.92,58.93-58.92,18.47,0,34.95,8.51,45.75,21.82C178.69,23.35,149.72,0,115.28,0m-22.69,29.7c-5.56,0-10.17-3.15-11.12-7.3.95-4.15,5.57-7.3,11.12-7.3s10.17,3.15,11.12,7.3c-.95,4.15-5.57,7.3-11.12,7.3"/></clipPath><linearGradient id="linear-gradient-2" x1="-122.76" y1="534.97" x2="-121.76" y2="534.97" gradientTransform="translate(-79696.2 18309.55) rotate(90) scale(149.15 -149.15)" gradientUnits="userSpaceOnUse"><stop offset="0" stop-color="#ed1c24"/><stop offset=".34" stop-color="#d5161d"/><stop offset="1" stop-color="#9d0a0f"/></linearGradient></defs><g id="Layer_1-2"><g class="cls-3"><rect class="cls-4" x="84.64" y="36.16" width="102.4" height="108.79"/></g><g class="cls-2"><rect class="cls-7" x="0" width="187.26" height="149.15"/></g><path class="cls-6" d="m96.04,19.63c-2.15,0-3.89,1.67-3.89,3.74s1.74,3.74,3.89,3.74,3.89-1.67,3.89-3.74-1.74-3.74-3.89-3.74"/><rect class="cls-5" x="134.81" y="81.3" width="6.74" height="23.57"/><path class="cls-5" d="m146.99,104.87v-23.57h12.86c1.89,0,3.32.08,4.3.23.98.15,1.84.41,2.57.76.96.47,1.7,1.13,2.22,1.98.52.85.78,1.83.78,2.93,0,1.63-.54,2.94-1.6,3.93-1.07.99-2.68,1.67-4.83,2.03,1.62.02,2.84.24,3.66.66.82.42,1.39,1.11,1.7,2.05.16.49.38,1.75.68,3.77.29,2.02.66,3.77,1.11,5.23h-6.92c-.21-.42-.4-1.22-.57-2.42-.02-.15-.04-.27-.05-.35l-.45-3.13c-.19-1.28-.56-2.12-1.1-2.51-.54-.39-1.84-.59-3.89-.59h-3.97v9h-6.49Zm6.49-19.02v5.51h4.18c1.97,0,3.33-.21,4.06-.63.74-.42,1.1-1.15,1.1-2.18s-.34-1.7-1.02-2.1c-.68-.39-2.06-.59-4.14-.59h-4.18Z"/><rect class="cls-5" x="174.06" y="81.3" width="6.74" height="23.57"/><path class="cls-5" d="m185.19,97.01h6.68v.24c0,1.16.38,2.02,1.15,2.58.77.55,1.96.83,3.57.83,1.43,0,2.5-.21,3.2-.62.7-.41,1.06-1.03,1.06-1.85,0-1.19-1.63-2.09-4.9-2.67-.66-.12-1.17-.21-1.52-.27-3.22-.62-5.48-1.45-6.78-2.49-1.31-1.04-1.96-2.49-1.96-4.34,0-2.41.95-4.24,2.84-5.52,1.89-1.27,4.62-1.91,8.19-1.91s5.93.57,7.58,1.71c1.64,1.14,2.53,2.93,2.67,5.38h-6.34v-.06c0-.85-.35-1.5-1.03-1.94-.69-.44-1.71-.66-3.06-.66s-2.32.19-3.03.57c-.71.38-1.06.92-1.06,1.62,0,1.11,1.58,1.96,4.73,2.54.55.11.99.19,1.3.26l.27.05c3.47.67,5.77,1.49,6.89,2.46.65.57,1.14,1.26,1.49,2.07.34.82.51,1.71.51,2.68,0,2.44-.98,4.32-2.95,5.63-1.96,1.32-4.78,1.97-8.43,1.97s-6.45-.64-8.29-1.93c-1.84-1.29-2.76-3.23-2.76-5.83v-.5Z"/><path class="cls-5" d="m235.23,96.67c-.1,2.82-1.12,4.96-3.08,6.41-1.95,1.46-4.78,2.19-8.46,2.19-4.34,0-7.64-1.04-9.92-3.11-2.27-2.08-3.41-5.09-3.41-9.03s1.16-6.94,3.49-9.01c2.33-2.07,5.71-3.1,10.16-3.1,3.49,0,6.16.67,8,1.99,1.84,1.33,2.88,3.35,3.12,6.05h-6.74c-.18-1.1-.68-1.93-1.49-2.49-.81-.57-1.92-.85-3.33-.85-2.17,0-3.78.59-4.83,1.78-1.05,1.19-1.57,3.02-1.57,5.49s.5,4.36,1.51,5.6c1.01,1.24,2.52,1.86,4.54,1.86,1.62,0,2.85-.31,3.7-.92.85-.61,1.36-1.56,1.54-2.85h6.77Z"/><path class="cls-5" d="m251.51,105.3c-4.42,0-7.83-1.06-10.21-3.18-2.38-2.12-3.57-5.15-3.57-9.09s1.27-6.78,3.8-8.91c2.53-2.13,6.07-3.19,10.61-3.19s7.95,1.07,10.37,3.19c2.42,2.13,3.62,5.17,3.62,9.14s-1.24,6.89-3.73,8.95c-2.49,2.06-6.12,3.09-10.88,3.09m-6.92-11.97c0,2.47.61,4.32,1.82,5.56,1.21,1.24,3.02,1.86,5.43,1.86s4.3-.61,5.53-1.83c1.23-1.22,1.85-3.04,1.85-5.47,0-2.61-.63-4.59-1.9-5.96-1.27-1.37-3.12-2.05-5.54-2.05-2.27,0-4.04.69-5.3,2.08-1.26,1.38-1.89,3.32-1.89,5.81"/><path class="cls-5" d="m270.19,104.87v-23.57h12.86c1.88,0,3.32.08,4.3.23.98.15,1.84.41,2.57.76.96.47,1.7,1.13,2.22,1.98.52.85.78,1.83.78,2.93,0,1.63-.54,2.94-1.61,3.93-1.07.99-2.68,1.67-4.83,2.03,1.62.02,2.84.24,3.66.66.82.42,1.39,1.11,1.7,2.05.16.49.38,1.75.68,3.77.29,2.02.66,3.77,1.11,5.23h-6.92c-.21-.42-.4-1.22-.57-2.42-.02-.15-.04-.27-.05-.35l-.45-3.13c-.19-1.28-.56-2.12-1.09-2.51-.54-.39-1.84-.59-3.9-.59h-3.97v9h-6.49Zm6.49-19.02v5.51h4.18c1.97,0,3.33-.21,4.06-.63.74-.42,1.1-1.15,1.1-2.18s-.34-1.7-1.02-2.1c-.68-.39-2.06-.59-4.14-.59h-4.18Z"/><path class="cls-5" d="m297.16,104.87v-23.57h12.18c1.77,0,3.14.09,4.14.27.99.18,1.85.47,2.57.88,1.06.61,1.87,1.46,2.43,2.55.55,1.1.83,2.39.83,3.9s-.28,2.79-.85,3.88c-.57,1.09-1.4,1.92-2.49,2.49-.78.43-1.69.73-2.74.91-1.05.18-2.74.27-5.07.27h-4.5v8.41h-6.49Zm6.49-18.93v5.97h4.07c1.87,0,3.15-.23,3.85-.68.7-.45,1.05-1.24,1.05-2.36s-.34-1.85-1.02-2.28c-.68-.43-1.97-.65-3.89-.65h-4.07Z"/><polygon class="cls-6" points="138.37 129.41 138.37 117.01 132.41 117.01 132.41 113.7 148.78 113.7 148.78 117.01 142.82 117.01 142.82 129.41 138.37 129.41"/><path class="cls-6" d="m150.89,129.41v-15.71h8.57c1.26,0,2.21.05,2.87.15.65.1,1.23.27,1.72.51.64.31,1.13.75,1.48,1.32.35.57.52,1.22.52,1.95,0,1.09-.36,1.96-1.07,2.62-.71.66-1.79,1.11-3.23,1.35,1.08.01,1.9.16,2.45.44.55.28.93.74,1.14,1.37.11.33.26,1.17.45,2.52.19,1.35.44,2.51.74,3.48h-4.63c-.14-.28-.27-.81-.38-1.61-.01-.1-.02-.18-.03-.23l-.3-2.09c-.13-.85-.37-1.41-.73-1.67-.36-.26-1.22-.4-2.59-.4h-2.64v6h-4.33Zm4.33-12.68v3.66h2.78c1.31,0,2.21-.14,2.7-.42.49-.28.73-.77.73-1.45s-.23-1.13-.68-1.39c-.45-.26-1.37-.39-2.76-.39h-2.78Z"/><path class="cls-6" d="m166.51,129.41l8.18-15.71h5.32l7.71,15.71h-5.06l-1.39-3.19h-8.56l-1.46,3.19h-4.73Zm7.66-6.22h5.65l-2.68-6.04-2.96,6.04Z"/><polygon class="cls-6" points="188.7 129.41 188.7 113.7 194.53 113.7 201.72 125 201.72 113.7 205.71 113.7 205.71 129.41 199.86 129.41 192.69 118.15 192.69 129.41 188.7 129.41"/><path class="cls-6" d="m208.46,124.17h4.45v.16c0,.77.26,1.35.77,1.72.51.37,1.3.55,2.38.55.95,0,1.66-.14,2.13-.41.47-.27.7-.68.7-1.23,0-.79-1.09-1.39-3.26-1.78-.44-.08-.78-.14-1.01-.18-2.15-.41-3.65-.96-4.52-1.66-.87-.7-1.31-1.66-1.31-2.9,0-1.61.63-2.83,1.89-3.68,1.26-.85,3.08-1.27,5.46-1.27s3.96.38,5.05,1.14c1.09.76,1.69,1.96,1.78,3.59h-4.23v-.04c0-.58-.23-1.01-.69-1.31-.46-.3-1.14-.45-2.04-.45s-1.54.13-2.02.39c-.47.26-.71.62-.71,1.09,0,.75,1.05,1.32,3.15,1.71.37.07.66.13.86.17l.18.03c2.32.45,3.84.99,4.59,1.64.43.38.76.84.99,1.38.23.54.34,1.14.34,1.78,0,1.63-.65,2.88-1.97,3.75-1.31.88-3.18,1.32-5.61,1.32s-4.3-.43-5.52-1.29c-1.23-.86-1.84-2.15-1.84-3.89v-.33Z"/><path class="cls-6" d="m226.08,129.41v-15.71h8.12c1.18,0,2.1.06,2.76.18.66.12,1.23.32,1.72.59.71.4,1.25.97,1.62,1.71.37.73.55,1.6.55,2.6s-.19,1.87-.57,2.59c-.38.72-.93,1.28-1.66,1.66-.52.29-1.13.49-1.83.61-.7.12-1.83.18-3.39.18h-3v5.6h-4.33Zm4.33-12.62v3.99h2.71c1.24,0,2.1-.15,2.56-.45.46-.3.7-.83.7-1.58s-.23-1.24-.68-1.52c-.45-.29-1.31-.43-2.59-.43h-2.71Z"/><path class="cls-6" d="m251.46,129.7c-2.95,0-5.21-.71-6.8-2.12-1.59-1.41-2.38-3.44-2.38-6.07s.84-4.53,2.53-5.95c1.69-1.42,4.04-2.13,7.07-2.13s5.3.71,6.91,2.13c1.61,1.42,2.41,3.45,2.41,6.1s-.83,4.6-2.49,5.98c-1.66,1.38-4.07,2.06-7.25,2.06m-4.6-8c0,1.65.4,2.89,1.21,3.72.81.83,2.01,1.24,3.61,1.24s2.86-.41,3.68-1.22c.82-.81,1.23-2.03,1.23-3.66,0-1.74-.42-3.07-1.27-3.99s-2.07-1.37-3.68-1.37c-1.51,0-2.69.46-3.52,1.39-.84.92-1.26,2.22-1.26,3.88"/><path class="cls-6" d="m263.89,129.41v-15.71h8.57c1.26,0,2.21.05,2.87.15.65.1,1.23.27,1.72.51.64.31,1.13.75,1.48,1.32.35.57.52,1.22.52,1.95,0,1.09-.36,1.96-1.07,2.62-.71.66-1.79,1.11-3.23,1.35,1.08.01,1.9.16,2.45.44.55.28.93.74,1.14,1.37.11.33.26,1.17.45,2.52.2,1.35.44,2.51.74,3.48h-4.63c-.14-.28-.27-.81-.39-1.61-.01-.1-.02-.18-.03-.23l-.3-2.09c-.13-.85-.37-1.41-.73-1.67-.36-.26-1.22-.4-2.59-.4h-2.64v6h-4.33Zm4.33-12.68v3.66h2.78c1.31,0,2.21-.14,2.7-.42.49-.28.73-.77.73-1.45s-.23-1.13-.68-1.39c-.45-.26-1.37-.39-2.76-.39h-2.78Z"/><polygon class="cls-6" points="286.42 129.41 286.42 117.01 280.47 117.01 280.47 113.7 296.83 113.7 296.83 117.01 290.88 117.01 290.88 129.41 286.42 129.41"/></g></svg>