<svg xmlns="http://www.w3.org/2000/svg" id="uuid-a97092bd-dd53-4d53-9776-5539704c7c41" viewBox="0 0 215.02 126.04"><defs><style>.uuid-3f6a8d21-b406-4660-a566-c197caba5d9a{fill:#efefef;}</style></defs><g id="uuid-f4c5fa43-a91d-4010-a6db-03b7d6952b3a"><polygon class="uuid-3f6a8d21-b406-4660-a566-c197caba5d9a" points="16.75 24.45 5.68 24.45 5.68 1.63 0 1.63 0 29.41 16.75 29.41 16.75 24.45"></polygon><path class="uuid-3f6a8d21-b406-4660-a566-c197caba5d9a" d="m30.44,30.32c1.51,0,2.91-.22,4.21-.65,1.3-.44,2.43-1.08,3.39-1.93.97-.85,1.71-1.89,2.24-3.14.53-1.24.79-2.68.79-4.33V1.63h-5.68v18.29c0,1.59-.42,2.86-1.25,3.83-.83.97-2.07,1.45-3.71,1.45s-2.88-.48-3.71-1.45c-.83-.97-1.25-2.24-1.25-3.83V1.63h-5.68v18.65c0,1.64.26,3.08.79,4.33.53,1.24,1.27,2.29,2.22,3.14.95.85,2.08,1.49,3.37,1.93,1.3.44,2.71.65,4.25.65Z"></path><polygon class="uuid-3f6a8d21-b406-4660-a566-c197caba5d9a" points="52.7 16.83 63.02 29.41 69.92 29.41 57.82 14.64 69.33 1.63 62.58 1.63 52.7 12.9 52.7 1.63 46.87 1.63 46.87 29.41 52.7 29.41 52.7 16.83"></polygon><path class="uuid-3f6a8d21-b406-4660-a566-c197caba5d9a" d="m79.3,23.1h9.53l2.93,6.31h6.43L84.09,0l-14.09,29.41h6.39l2.9-6.31Zm8.24-4.48h-6.92l3.48-7.98,3.45,7.98Z"></path><path class="uuid-3f6a8d21-b406-4660-a566-c197caba5d9a" d="m110.6,25.2c-.98,0-1.89-.21-2.74-.63-.85-.42-1.62-1.02-2.32-1.79-.7-.77-1.34-1.67-1.92-2.7l-4.05,2.86c.61,1.3,1.45,2.5,2.54,3.61,1.08,1.11,2.36,1.99,3.83,2.64,1.47.65,3.05.97,4.74.97,1.27,0,2.48-.19,3.63-.58,1.15-.38,2.19-.94,3.12-1.67.93-.73,1.65-1.62,2.18-2.68.53-1.06.79-2.26.79-3.61,0-1.19-.19-2.24-.58-3.16-.38-.91-.91-1.71-1.59-2.38s-1.43-1.25-2.26-1.73c-.83-.48-1.7-.87-2.6-1.19-1.4-.48-2.57-.95-3.49-1.41-.93-.46-1.61-.95-2.06-1.47-.45-.52-.67-1.12-.67-1.81s.28-1.29.83-1.81c.56-.52,1.39-.77,2.5-.77.85,0,1.6.17,2.26.5.66.33,1.25.77,1.77,1.31.52.54.96,1.14,1.33,1.81l4.44-2.46c-.48-.98-1.14-1.92-2-2.84-.86-.91-1.93-1.67-3.21-2.26-1.28-.6-2.81-.89-4.58-.89s-3.27.31-4.66.93c-1.39.62-2.49,1.51-3.29,2.66-.81,1.15-1.21,2.52-1.21,4.11,0,1.32.25,2.45.75,3.39.5.94,1.14,1.73,1.9,2.38.77.65,1.58,1.18,2.44,1.59.86.41,1.62.73,2.28.97,1.24.48,2.29.92,3.16,1.33.86.41,1.51.88,1.94,1.41.44.53.65,1.23.65,2.1,0,1.01-.36,1.8-1.07,2.38-.71.58-1.64.87-2.78.87Z"></path><path class="uuid-3f6a8d21-b406-4660-a566-c197caba5d9a" d="m17.02,63.2c-.78-.5-1.65-.88-2.59-1.17,1.25-.51,2.25-1.22,2.98-2.15.79-1.01,1.19-2.21,1.19-3.61,0-1.59-.4-2.9-1.19-3.93-.79-1.03-1.89-1.81-3.29-2.32-1.4-.52-3.03-.77-4.88-.77H0v27.78h9.84c2.06,0,3.88-.28,5.44-.83,1.56-.56,2.77-1.41,3.63-2.58.86-1.16,1.29-2.66,1.29-4.48,0-1.38-.28-2.55-.85-3.53-.57-.98-1.34-1.78-2.32-2.4Zm-8.29-9.42c1.24,0,2.23.28,2.96.83.73.56,1.09,1.36,1.09,2.42,0,.69-.17,1.28-.5,1.79-.33.5-.8.89-1.41,1.15-.61.26-1.32.4-2.14.4h-3.06v-6.59h3.06Zm4.98,16.99c-.44.61-1.04,1.05-1.81,1.33-.77.28-1.63.42-2.58.42h-3.65v-8.02h3.65c.71,0,1.38.07,1.98.22.61.15,1.14.38,1.61.71.46.33.82.74,1.07,1.23.25.49.38,1.08.38,1.77,0,.95-.22,1.73-.65,2.34Z"></path><polygon class="uuid-3f6a8d21-b406-4660-a566-c197caba5d9a" points="42.7 54.05 42.7 49.25 30.52 49.25 28.69 49.25 25.04 49.25 25.04 77.03 28.69 77.03 30.52 77.03 42.7 77.03 42.7 72.23 30.52 72.23 30.52 64.65 41.91 64.65 41.91 59.92 30.52 59.92 30.52 54.05 42.7 54.05"></polygon><polygon class="uuid-3f6a8d21-b406-4660-a566-c197caba5d9a" points="68.06 66.47 48.3 47.86 48.3 77.03 53.77 77.03 53.77 59.81 73.54 78.42 73.54 49.25 68.06 49.25 68.06 66.47"></polygon><path class="uuid-3f6a8d21-b406-4660-a566-c197caba5d9a" d="m79.57,78.06c0,1.22-.28,2.08-.85,2.58-.57.5-1.16.75-1.77.75s-1.23-.13-1.79-.38c-.56-.25-1.02-.58-1.39-.97l-3.06,4.09c.42.32.97.63,1.65.95s1.44.6,2.3.83c.86.24,1.75.36,2.68.36,1.14,0,2.2-.13,3.19-.4.99-.26,1.87-.68,2.62-1.25.75-.57,1.34-1.3,1.75-2.18.41-.89.62-1.95.62-3.19v-30h-5.95v28.81Z"></path><path class="uuid-3f6a8d21-b406-4660-a566-c197caba5d9a" d="m88.58,77.03h6.39l2.9-6.31h9.53l2.93,6.31h6.43l-14.09-29.41-14.09,29.41Zm17.54-10.79h-6.92l3.48-7.98,3.45,7.98Z"></path><polygon class="uuid-3f6a8d21-b406-4660-a566-c197caba5d9a" points="143.78 77.03 149.69 77.03 145.56 47.86 133.94 65.8 122.31 47.86 118.18 77.03 124.09 77.03 125.88 61.43 133.94 74.45 141.99 61.43 143.78 77.03"></polygon><rect class="uuid-3f6a8d21-b406-4660-a566-c197caba5d9a" x="154.14" y="49.25" width="5.75" height="27.78"></rect><polygon class="uuid-3f6a8d21-b406-4660-a566-c197caba5d9a" points="191.12 78.42 191.12 49.25 185.65 49.25 185.65 66.47 165.88 47.86 165.88 77.03 171.36 77.03 171.36 59.81 191.12 78.42"></polygon><polygon class="uuid-3f6a8d21-b406-4660-a566-c197caba5d9a" points="3.65 96.87 0 96.87 0 124.65 3.65 124.65 5.48 124.65 17.66 124.65 17.66 119.85 5.48 119.85 5.48 112.27 16.87 112.27 16.87 107.55 5.48 107.55 5.48 101.67 17.66 101.67 17.66 96.87 5.48 96.87 3.65 96.87"></polygon><polygon class="uuid-3f6a8d21-b406-4660-a566-c197caba5d9a" points="43.02 114.1 23.26 95.48 23.26 124.65 28.73 124.65 28.73 107.43 48.5 126.04 48.5 96.87 43.02 96.87 43.02 114.1"></polygon><path class="uuid-3f6a8d21-b406-4660-a566-c197caba5d9a" d="m68.02,114.33h7.98c-.24.85-.58,1.63-1.03,2.34-.45.71-1,1.35-1.65,1.9-.65.56-1.42.99-2.32,1.29-.9.3-1.92.46-3.06.46-1.72,0-3.26-.4-4.62-1.19-1.36-.79-2.44-1.91-3.23-3.35-.79-1.44-1.19-3.12-1.19-5.02s.4-3.6,1.21-5c.81-1.4,1.9-2.48,3.27-3.23,1.38-.75,2.9-1.13,4.56-1.13,1.77,0,3.27.38,4.5,1.13,1.23.75,2.19,1.74,2.88,2.96l4.84-2.82c-.85-1.3-1.86-2.41-3.04-3.35-1.18-.94-2.53-1.67-4.05-2.2-1.52-.53-3.23-.79-5.14-.79-2.14,0-4.13.34-5.95,1.03-1.83.69-3.41,1.67-4.76,2.94-1.35,1.27-2.4,2.8-3.15,4.58-.75,1.79-1.13,3.75-1.13,5.89s.36,4.11,1.09,5.91c.73,1.8,1.76,3.35,3.1,4.64,1.34,1.3,2.91,2.3,4.72,3.02,1.81.71,3.79,1.07,5.93,1.07,2.27,0,4.3-.41,6.07-1.23,1.77-.82,3.26-1.95,4.46-3.39,1.2-1.44,2.09-3.1,2.66-4.98.57-1.88.81-3.88.73-5.99h-13.69v4.52Z"></path><polygon class="uuid-3f6a8d21-b406-4660-a566-c197caba5d9a" points="90.01 96.87 86.35 96.87 86.35 124.65 90.01 124.65 91.83 124.65 104.01 124.65 104.01 119.85 91.83 119.85 91.83 112.27 103.22 112.27 103.22 107.55 91.83 107.55 91.83 101.67 104.01 101.67 104.01 96.87 91.83 96.87 90.01 96.87"></polygon><polygon class="uuid-3f6a8d21-b406-4660-a566-c197caba5d9a" points="115.28 96.87 109.61 96.87 109.61 124.65 126.36 124.65 126.36 119.69 115.28 119.69 115.28 96.87"></polygon><polygon class="uuid-3f6a8d21-b406-4660-a566-c197caba5d9a" points="134 12.23 134 18.63 208.61 18.63 208.61 107.41 134 107.41 134 113.81 215.02 113.81 215.02 12.23 134 12.23"></polygon></g></svg>