<?xml version="1.0" encoding="UTF-8"?>
<svg xmlns="http://www.w3.org/2000/svg" xmlns:xlink="http://www.w3.org/1999/xlink" viewBox="0 0 341.55 208.71">
  <defs>
    <style>.i,.j{fill:none;}.j{stroke:#38383b;stroke-linecap:round;stroke-linejoin:round;stroke-width:1.46px;}.k{fill:#f8eee6;}.l{fill:#018181;}.m{fill:#ffdc4c;}.n{fill:#c44627;}.o{fill:#b2d78a;}.p{fill:#231f20;}.q{fill:#88441e;}.r{fill:#38383b;}.s{fill:#4d4d4e;}.t{clip-path:url(#f);}.u{clip-path:url(#e);}.v{clip-path:url(#d);}.w{clip-path:url(#h);}.x{clip-path:url(#g);}</style>
    <clipPath id="d">
      <rect class="i" x="108.09" y="144.39" width="30.99" height="14.96"></rect>
    </clipPath>
    <clipPath id="e">
      <path class="i" d="M162.36,147.72c9.17-1.93,18.5-3.28,27.88-4.06-5.18-.67-10.47-1.16-15.84-1.47-.71-2.78-1.42-5.57-2.13-8.36-4.69,.71-9.35,1.54-13.98,2.51,2.43,1.53,4.8,3.08,7.11,4.68-1.09,2.23-2.1,4.46-3.04,6.7"></path>
    </clipPath>
    <clipPath id="f">
      <rect class="i" x="201.05" y="144.39" width="30.99" height="14.96"></rect>
    </clipPath>
    <clipPath id="g">
      <path class="i" d="M256.74,147.72c-9.17-1.93-18.5-3.28-27.88-4.06,5.18-.67,10.47-1.16,15.84-1.47,.71-2.78,1.42-5.57,2.13-8.36,4.69,.71,9.35,1.54,13.97,2.51-2.43,1.53-4.8,3.08-7.1,4.68,1.09,2.23,2.1,4.46,3.04,6.7"></path>
    </clipPath>
    <clipPath id="h">
      <rect class="i" x="148.69" y="121.95" width="43.81" height="9.62"></rect>
    </clipPath>
  </defs>
  <g id="a"></g>
  <g id="b">
    <g id="c">
      <path class="o" d="M169.12,208.71c-25.65,0-55.57-4.08-88.92-13.85h-22.93s-3.38-9.58-10.7-16.66c-8.77-8.49-25.37-10.73-25.37-10.73v-15.82C5.64,141.18,.68,119.14,0,104.19l1.35-.13-1.35-.13c.68-14.95,5.64-36.99,21.21-47.47v-18.54s14.27,.74,22.47-6.11c10.94-9.15,11.04-18.67,11.04-18.67h26.29C113.56,0,147.96,0,173.61,0s51.21,6.95,83.11,13.95l18.99,.15,.43,11.68c1.91,11.66,11.1,19.39,25.24,21.22l3.54,.46v11.73c15.57,10.48,21.88,29.8,22.57,44.74v.26c-.69,14.95-7,34.27-22.57,44.75v11.73l-3.54,.46c-14.13,1.82-23.33,9.55-25.24,21.21l-.49,13.89h-18.85c-31.99,8.4-61.98,12.48-87.69,12.48"></path>
      <path class="o" d="M185.5,208.71c-25.27,0-54.75-4.08-87.61-13.85h-22.59s-3.33-9.58-10.54-16.66c-8.64-8.49-24.99-10.73-24.99-10.73v-15.82c-15.34-10.48-20.22-32.52-20.9-47.47l1.33-.13-1.33-.13c.67-14.95,5.56-36.99,20.9-47.47v-18.54s14.06,.74,22.14-6.11c10.78-9.15,10.88-18.67,10.88-18.67h25.9C130.75,0,164.65,0,189.92,0s50.46,6.95,81.89,13.95l18.71,.15,.43,11.68c1.88,11.66,10.94,19.39,24.86,21.22l3.48,.46v11.73c15.34,10.48,21.56,29.8,22.24,44.74v.26c-.68,14.95-6.9,34.27-22.24,44.75v11.73l-3.48,.46c-13.92,1.82-22.98,9.55-24.86,21.21l-.48,13.89h-18.57c-31.52,8.4-61.07,12.48-86.4,12.48"></path>
      <g>
        <path class="r" d="M220.65,138.53c-33.32-4.8-67.53-4.8-100.86,0,1.29,5.26,2.59,10.52,3.88,15.78,30.77-4.43,62.34-4.43,93.11,0,1.29-5.26,2.58-10.52,3.87-15.78"></path>
        <path class="j" d="M220.92,138.36c-33.5-4.93-67.88-4.93-101.39,0,1.3,5.4,2.6,10.81,3.9,16.21,30.93-4.55,62.67-4.55,93.6,0,1.3-5.4,2.59-10.81,3.89-16.21Z"></path>
        <path class="r" d="M105.78,163.39c12.49-2.62,25.18-4.46,37.96-5.53-7.05-.91-14.25-1.58-21.57-2-.97-3.79-1.94-7.58-2.9-11.38-6.38,.96-12.73,2.1-19.03,3.41,3.31,2.08,6.54,4.21,9.68,6.37-1.48,3.03-2.86,6.07-4.14,9.12"></path>
        <path class="j" d="M105.59,163.65c12.64-2.69,25.49-4.59,38.42-5.68-7.14-.94-14.42-1.63-21.83-2.06-.98-3.9-1.96-7.8-2.94-11.7-6.46,.99-12.89,2.15-19.26,3.51,3.35,2.14,6.62,4.32,9.79,6.55-1.5,3.12-2.89,6.24-4.19,9.37Z"></path>
        <path class="r" d="M145.56,157.45c-.21-1.59-.42-3.18-.63-4.77-7.33,.57-14.63,1.39-21.89,2.45,7.65,.5,15.17,1.29,22.52,2.32"></path>
        <path class="j" d="M145.82,157.71c-.21-1.77-.43-3.53-.64-5.3-7.5,.63-14.97,1.54-22.41,2.72,7.83,.56,15.52,1.43,23.05,2.58Z"></path>
        <path class="r" d="M230.51,154.27c3.14-2.17,6.37-4.29,9.69-6.36-6.31-1.32-12.68-2.47-19.07-3.42-.97,3.79-1.94,7.58-2.9,11.37-7.34,.42-14.55,1.09-21.62,2,12.82,1.06,25.55,2.91,38.07,5.53-1.29-3.05-2.67-6.08-4.16-9.12"></path>
        <path class="j" d="M230.66,154.28c3.18-2.23,6.45-4.41,9.81-6.54-6.39-1.36-12.83-2.54-19.31-3.52-.98,3.9-1.96,7.8-2.94,11.69-7.43,.43-14.72,1.12-21.89,2.06,12.97,1.09,25.86,2.99,38.53,5.69-1.3-3.13-2.7-6.25-4.21-9.38Z"></path>
        <path class="r" d="M217.36,155.12c-7.28-1.06-14.6-1.88-21.95-2.45-.21,1.59-.42,3.18-.63,4.77,7.38-1.04,14.91-1.81,22.58-2.32"></path>
        <path class="j" d="M217.62,155.13c-7.45-1.18-14.94-2.09-22.46-2.72-.21,1.77-.43,3.53-.64,5.29,7.55-1.15,15.26-2.01,23.1-2.57Z"></path>
        <path class="m" d="M221.14,138.8c-33.32-4.8-68.05-4.98-101.38-.18,1.29,5.26,2.31,10.46,3.6,15.72,30.77-4.43,63.24-4.27,94.01,.16,1.29-5.26,2.47-10.45,3.76-15.71"></path>
        <path class="m" d="M105.78,163.39c12.49-2.62,25.18-4.46,37.96-5.53-7.05-.91-14.25-1.58-21.57-2-.97-3.79-1.94-7.58-2.9-11.38-6.38,.96-12.73,2.1-19.03,3.41,3.31,2.08,6.54,4.21,9.68,6.37-1.48,3.03-2.86,6.07-4.14,9.12"></path>
        <path class="k" d="M145.56,157.45c-.21-1.59-.42-3.18-.63-4.77-7.33,.57-14.63,1.39-21.89,2.45,7.65,.5,15.17,1.29,22.52,2.32"></path>
        <path class="m" d="M230.51,154.27c3.14-2.17,6.37-4.29,9.69-6.36-6.31-1.32-12.68-2.47-19.07-3.42-.97,3.79-1.94,7.58-2.9,11.37-7.34,.42-14.55,1.09-21.62,2,12.82,1.06,25.55,2.91,38.07,5.53-1.29-3.05-2.67-6.08-4.16-9.12"></path>
        <path class="k" d="M217.36,155.12c-7.28-1.06-14.6-1.88-21.95-2.45-.21,1.59-.42,3.18-.63,4.77,7.38-1.04,14.91-1.81,22.58-2.32"></path>
        <path class="s" d="M119.97,140.39l10.62-.85-10.44,1.75c-.31,.05-.62-.1-.68-.35-.07-.25,.13-.49,.44-.54,.02,0,.04,0,.06,0"></path>
        <path class="s" d="M120.35,142.23l10.12-.78-9.94,1.67c-.31,.05-.62-.1-.69-.35-.07-.25,.13-.49,.44-.54,.02,0,.05,0,.07,0"></path>
        <path class="s" d="M120.73,144.06l9.62-.7-9.45,1.6c-.31,.05-.62-.1-.69-.35-.07-.25,.13-.49,.44-.54,.03,0,.05,0,.07,0"></path>
        <path class="s" d="M121.11,145.89l9.12-.63-8.95,1.52c-.31,.05-.62-.1-.69-.35-.07-.25,.13-.49,.44-.54,.02,0,.05,0,.07,0"></path>
        <path class="r" d="M121.49,147.72l8.62-.55-8.45,1.45c-.31,.05-.62-.1-.69-.35-.07-.25,.13-.49,.44-.54,.02,0,.05,0,.08,0"></path>
        <path class="r" d="M121.87,149.55l8.12-.47-7.96,1.37c-.31,.05-.62-.1-.69-.35-.07-.25,.12-.49,.44-.54,.03,0,.06,0,.08-.01"></path>
        <path class="r" d="M122.25,151.38l7.62-.39-7.46,1.29c-.31,.05-.62-.1-.69-.35-.07-.25,.12-.49,.44-.54,.03,0,.06,0,.09-.01"></path>
        <path class="s" d="M220.37,141.31l-10.75-1.76,10.92,.87c.32,.03,.55,.25,.52,.5-.03,.25-.31,.43-.63,.41-.02,0-.04,0-.06,0"></path>
        <path class="s" d="M219.94,143.14l-10.2-1.69,10.38,.79c.32,.03,.55,.25,.52,.5-.03,.25-.31,.43-.63,.41-.02,0-.05,0-.07,0"></path>
        <path class="s" d="M219.52,144.97l-9.65-1.61,9.83,.71c.32,.02,.56,.25,.53,.5-.03,.25-.31,.43-.63,.41-.02,0-.05,0-.07,0"></path>
        <path class="s" d="M219.09,146.8l-9.11-1.53,9.28,.63c.32,.02,.55,.24,.53,.49-.03,.25-.31,.44-.63,.42-.02,0-.05,0-.07,0"></path>
        <path class="r" d="M218.66,148.63l-8.56-1.45,8.73,.56c.32,.02,.56,.24,.53,.49-.03,.25-.31,.44-.63,.42-.03,0-.05,0-.08,0"></path>
        <path class="r" d="M218.23,150.46l-8.01-1.38,8.17,.47c.32,.02,.56,.24,.54,.49-.02,.25-.3,.44-.62,.42-.03,0-.06,0-.08,0"></path>
        <path class="r" d="M217.81,152.29l-7.46-1.3,7.62,.4c.32,.02,.56,.23,.54,.48-.02,.25-.3,.44-.62,.43-.02,0-.06,0-.08,0"></path>
      </g>
      <g class="v">
        <g class="u">
          <path class="r" d="M173.63,134.76l-8.86,1.24,8.67-1.89c.23-.05,.46,.06,.52,.23,.06,.18-.07,.36-.3,.42-.01,0-.02,0-.04,0"></path>
          <path class="r" d="M175.75,136.13l-9.45,1.29,9.27-1.95c.23-.05,.46,.06,.52,.24,.06,.18-.07,.36-.3,.41-.01,0-.03,0-.04,0"></path>
          <path class="r" d="M177.86,137.51l-10.05,1.35,9.87-2c.23-.05,.46,.06,.52,.24,.06,.18-.08,.36-.3,.41-.01,0-.02,0-.03,0"></path>
          <path class="r" d="M179.97,138.88l-10.65,1.4,10.48-2.05c.23-.05,.46,.06,.52,.24,.06,.18-.08,.36-.31,.4-.01,0-.02,0-.03,0"></path>
          <path class="r" d="M182.09,140.26l-11.25,1.45,11.07-2.1c.23-.04,.46,.07,.51,.25,.05,.18-.09,.36-.31,.4-.01,0-.02,0-.03,0"></path>
          <path class="r" d="M184.2,141.63l-11.84,1.5,11.67-2.15c.23-.04,.46,.07,.51,.25,.05,.18-.09,.36-.31,.4-.01,0-.02,0-.03,0"></path>
          <path class="r" d="M186.31,143.01l-12.44,1.55,12.28-2.21c.23-.04,.46,.07,.51,.25,.05,.18-.09,.36-.32,.4,0,0-.02,0-.03,0"></path>
        </g>
      </g>
      <g class="t">
        <g class="x">
          <path class="r" d="M245.65,134.11l8.67,1.89-8.86-1.24c-.23-.03-.39-.21-.35-.39,.04-.18,.26-.3,.5-.27,.01,0,.02,0,.04,0"></path>
          <path class="r" d="M243.53,135.48l9.27,1.95-9.45-1.29c-.23-.03-.39-.21-.35-.39,.04-.18,.26-.3,.49-.27,0,0,.02,0,.03,0"></path>
          <path class="r" d="M241.42,136.85l9.87,2-10.05-1.35c-.23-.03-.39-.2-.35-.39,.04-.18,.26-.3,.49-.27,.01,0,.02,0,.04,0"></path>
          <path class="r" d="M239.3,138.23l10.47,2.05-10.65-1.4c-.23-.03-.39-.21-.35-.39,.04-.18,.26-.3,.49-.27,.01,0,.02,0,.03,0"></path>
          <path class="r" d="M237.18,139.6l11.07,2.1-11.25-1.45c-.23-.03-.39-.2-.35-.38,.04-.18,.26-.31,.49-.28,.01,0,.02,0,.03,0"></path>
          <path class="r" d="M235.07,140.98l11.68,2.15-11.84-1.5c-.23-.03-.39-.2-.35-.38,.04-.18,.26-.31,.49-.28,0,0,.02,0,.03,0"></path>
          <path class="r" d="M232.95,142.36l12.28,2.21-12.44-1.55c-.23-.03-.39-.2-.35-.38s.25-.31,.48-.28c.01,0,.02,0,.03,0"></path>
        </g>
      </g>
      <g>
        <path class="n" d="M171.85,56.88c-14,0-26.2-1.18-36.14-2.71-27.13-4.17-43.59-11.74-43.75-11.82-.25-.12-.34-.38-.2-.59,.15-.21,.48-.28,.74-.16,.16,.08,16.5,7.59,43.46,11.72,24.88,3.82,64.16,5.46,109.99-8.39,.28-.08,.59,.03,.69,.25,.11,.22-.03,.47-.31,.56-27.8,8.4-53.21,11.14-74.48,11.14"></path>
        <path class="n" d="M85.68,40.73h-.03v.03c.02,.19,.05,.32,.09,.45h0c.09,.18,.22,.34,.43,.54,.11,.1,.25,.21,.41,.33h0c.07,.04,.14,.08,.22,.12l.04,.03v-.05c0-.09,0-.18,0-.27,0-.2,0-.41-.02-.62-.03-.21-.05-.43-.08-.68v-.08l-.02-.05-.04,.04c-.17,.16-.44,.25-.76,.25-.08,0-.16,0-.25-.02"></path>
        <path class="n" d="M84.88,38.11c.18,.16,.31,.35,.42,.6,.1,.19,.18,.4,.23,.63h0c.04,.1,.07,.16,.1,.22v.02h.04s.06-.03,.09-.05c.09-.04,.2-.08,.31-.12,.1-.04,.2-.06,.3-.06,.03,0,.06,0,.09,0h.05l-.02-.04c-.14-.33-.32-.59-.56-.79-.3-.27-.68-.45-1.16-.56l-.14-.03,.11,.08s.09,.07,.12,.1"></path>
        <path class="n" d="M84.63,44.07l.02-.05c.15-.41,.1-.82-.14-1.3-.15-.28-.36-.58-.67-.91l-.02-.02s-.06-.06-.09-.09c-.26-.24-.55-.42-.85-.62-.21-.14-.43-.28-.65-.45h-.01c-.16-.05-.33-.08-.47-.08-.37,0-.69,.15-.93,.43-.06,.06-.11,.12-.15,.2-.12,.19-.2,.36-.22,.48-.02,.11,0,.14,.02,.16,0,.01,.04,.05,.17,.05,.14,0,.4-.04,.67-.15,.19-.07,.34-.1,.48-.1,.12,0,.23,.03,.34,.09,.08,.05,.16,.1,.24,.17,.1,.08,.23,.17,.4,.26,.16,.08,.32,.2,.5,.36,.26,.23,.54,.55,.81,.91h0c.23,.22,.41,.42,.52,.6l.03,.05Z"></path>
        <path class="n" d="M83.99,45.71c.17-.19,.31-.45,.39-.69l.02-.08-.06,.04c-.19,.12-.39,.19-.63,.23h-.03c-.38,0-.83-.21-1.29-.61,0,0-.02-.01-.03-.02-.01-.01-.03-.02-.04-.03-.07-.06-.14-.13-.21-.22-.32-.35-.57-.73-.71-1.1h0c-.26-.39-.35-.78-.24-1.09l.02-.06-.06,.03s-.03,.01-.05,.02c-.02,0-.04,.01-.06,.02-.02,0-.05,.02-.08,.03-.08,.03-.15,.06-.23,.06h-.02v.02c-.23,1.09-.1,1.84,.36,2.25,.07,.06,.15,.12,.24,.17,.12,.07,.25,.15,.38,.27,.14,.12,.26,.26,.39,.39,.12,.13,.24,.26,.37,.37,.25,.23,.48,.35,.74,.4,.03,0,.06,0,.1,0,.08,0,.16-.02,.25-.05h0s0,0,0-.01h0c.08-.04,.15-.08,.23-.12,.09-.07,.18-.15,.25-.23"></path>
        <path class="n" d="M80.05,40.4c-.05,.06-.09,.13-.11,.2h0c0,.06,0,.11,.02,.16v.04l.05-.03c.07-.05,.13-.1,.19-.13h0c.33-.27,.79-.3,1.28-.34,.12,0,.24-.02,.36-.03,.26-.02,.51-.11,.76-.21,.31-.12,.62-.24,.99-.24,.32,0,.64,.09,.97,.28,.01,0,.03,.02,.04,.03,.01,0,.02,0,.03,.02h0l.06,.02c.23,.08,.43,.15,.55,.16,.03,0,.04,.01,.06,.03,0,0,.01,0,.01,.01,.02,.02,.03,.04,.05,.05v.03h.03c.19,.05,.37,.07,.54,.07,.35,0,.55-.1,.63-.2,0,0,0-.01,.02-.02,.06-.07,.08-.22,.09-.33h0s0-.06,0-.09c0-.03,0-.07-.01-.1h0c-.02-.08-.05-.12-.09-.15-.05-.04-.1-.06-.17-.06-.06,0-.14,.02-.23,.05-.11,.04-.21,.08-.3,.13-.21,.09-.39,.17-.6,.19-.04,0-.1,.01-.14,.01-.27,0-.55-.1-.92-.33-.46-.27-.75-.39-1.02-.43h0c-.23,0-.43,.1-.63,.2-.12,.06-.25,.12-.36,.14-.04,0-.1,.02-.16,.03h0c-.24,.13-.55,.23-.85,.32-.46,.14-.91,.27-1.11,.52"></path>
        <path class="n" d="M84.08,37.93c-.3-.1-.56-.18-.8-.22-.03,0-.06,0-.09,0-.28,0-.56,.1-.94,.33-.17,.11-.32,.19-.45,.26-.07,.04-.14,.07-.19,.11h0c-.14,.14-.28,.28-.43,.45h0v.02h-.02c-.06,.16-.1,.38-.14,.7v.05l.04-.02c.46-.16,.86-.26,1.08-.3,.06,0,.15-.05,.26-.1,.2-.1,.47-.24,.79-.24,.14,0,.28,.03,.41,.08,.12,.05,.25,.11,.37,.17,.39,.18,.78,.38,1.17,.38,.07,0,.14,0,.21-.02h.03v-.04c-.07-.12-.11-.25-.15-.38-.11-.31-.22-.63-.5-.88-.16-.14-.35-.25-.59-.33l-.05-.02Z"></path>
        <path class="n" d="M86.59,44.04s.06-.1,.07-.19c.02-.15,.11-.26,.21-.38,.04-.05,.09-.11,.12-.18,.02-.03,.03-.05,.05-.08,.09-.2,.12-.36-.26-.72-.07-.06-.16-.13-.26-.21-.19-.13-.35-.26-.48-.38h-.01c-.35-.33-.47-.57-.55-.77-.02-.04-.03-.07-.04-.11-.06-.15-.11-.3-.25-.49h-.02c-.15-.04-.35-.11-.56-.18-.12-.04-.24-.08-.36-.12,0,0-.02,0-.02,0,0,0-.01,0-.02,0l-.18-.06,.15,.11c.06,.04,.12,.09,.18,.15,.11,.1,.22,.21,.31,.34,.16,.19,.27,.4,.34,.62,.04,.12,.07,.24,.08,.35,.05,.43,.13,.75,.25,.99h0c.08,.13,.19,.26,.33,.4,.06,.06,.09,.11,.08,.15-.02,.07-.13,.13-.24,.18h0c-.17,.1-.31,.2-.44,.31,0,0-.02,.01-.03,.02h-.02v.02s-.01,.08,0,.12c.03,.25,.13,.58,.28,.71h0s.02,.02,.03,.03h0s.06,.02,.09,.02c.04,0,.08,0,.14-.03,.06-.02,.11-.05,.15-.08,.06-.05,.11-.08,.17-.12,.05-.04,.09-.08,.14-.11,.02-.02,.04-.02,.06-.02h.02c.06-.03,.1-.06,.15-.08,.15-.07,.25-.13,.31-.2"></path>
        <path class="n" d="M86.03,44.63l-.03,.03c-.09,.07-.21,.15-.34,.2-.07,.03-.15,.05-.22,.05-.12,0-.23-.04-.33-.12-.08-.08-.16-.18-.22-.32l-.03-.07-.02,.07c-.03,.11-.06,.19-.06,.21h0c.02,.36-.11,.7-.37,.99-.15,.18-.35,.33-.58,.48l-.04,.03,.04,.02c.23,.11,.49,.18,.76,.18,.49,0,.95-.2,1.23-.52,.12-.15,.21-.31,.26-.49,.04-.18,.05-.37-.03-.68v-.05Z"></path>
        <path class="n" d="M87.17,45.44c.09-.1,.15-.22,.19-.35,.08-.22,.08-.5,.1-.8,0-.28,.02-.57,.08-.84h0c-.03-.19,0-.33,.1-.43,.05-.06,.11-.1,.17-.15h.02v-.02s.01,0,.02,0c.01-.01,.03-.03,.04-.04,.19-.21,.29-.62,.26-1.04-.02-.31-.1-.61-.23-.83h0c-.06-.09-.13-.16-.2-.22-.17-.16-.41-.31-.74-.48l-.05-.02v.05c.02,.09,.03,.18,.04,.26,.1,.77,.17,1.28,.13,1.89h0v.02c.16,.22,.25,.38,.28,.53,.05,.18-.07,.32-.11,.36-.03,.03-.05,.05-.07,.08-.02,.02-.04,.04-.05,.06h0c-.07,.07-.08,.17-.1,.28-.02,.14-.05,.31-.18,.48-.06,.07-.14,.12-.23,.17-.18,.08-.29,.13-.36,.16h-.02v.03c.13,.49,.06,.76,0,1.03,0,.03-.02,.06-.03,.1v.03h.02c.07,.03,.14,.03,.21,.03,.28,0,.54-.12,.72-.33"></path>
        <path class="n" d="M80.37,42.22v-.03h-.02c-.06-.02-.1-.05-.14-.09-.21-.21-.12-.5,0-.79,.07-.16,.18-.34,.29-.51l.05-.08-.09,.03c-.2,.07-.43,.24-.6,.44-.24,.26-.39,.62-.35,.81,.01,.09,.02,.19,.03,.32,.05,.5,.12,1.27,.57,1.66,.09,.07,.18,.14,.29,.18l.06,.03-.02-.07c-.23-.64-.26-1.27-.08-1.91"></path>
        <path class="n" d="M85.06,43.5l.03-.02c.13-.1,.25-.17,.33-.21l.03-.02-.03-.03c-.3-.28-.46-.71-.55-1.44-.04-.32-.23-.8-.65-1.17-.27-.24-.59-.41-.95-.49h-.01c-.07,.02-.23,.09-.41,.17h-.03c-.13,.07-.28,.12-.41,.17l-.05,.02,.05,.03c.19,.14,.39,.27,.58,.4,.3,.19,.6,.39,.89,.65,.53,.48,.91,1.09,1.18,1.93v.04Z"></path>
        <path class="n" d="M82.46,44.38c.24,.22,.53,.38,.91,.51,.1,.03,.21,.05,.32,.05,.33,0,.63-.17,.78-.35,.02-.02,.02-.03,.04-.05,.05-.05,.05-.18-.08-.39-.09-.17-.26-.36-.48-.57l-.02-.02-.02,.03s-.04,.05-.05,.07c-.27,.31-.62,.49-1,.49h-.02c-.22,0-.45-.06-.66-.18l-.11-.05,.07,.1c.1,.13,.2,.26,.33,.37"></path>
        <path class="n" d="M82.11,42.02s-.04-.04-.05-.05c-.1-.09-.18-.13-.27-.13-.03,0-.05,0-.09,.01-.08,.03-.17,.08-.23,.16-.19,.23-.29,.63,.27,1.31,.06,.07,.13,.14,.19,.2,.26,.23,.55,.35,.85,.35,.24,0,.48-.08,.7-.22l.1-.07-.12,.02c-.15,.02-.29,.02-.42,.02-.39,0-.67-.08-.87-.25-.1-.09-.17-.2-.21-.33h0c-.05-.14-.07-.29-.04-.44,.03-.19,.12-.37,.19-.52v-.02h0v-.03Z"></path>
        <path class="n" d="M82.3,42.24c.18,.16,.51,.26,.88,.26,.15,0,.3-.02,.44-.05h.04l-.02-.04c-.06-.13-.18-.27-.35-.42-.18-.16-.4-.32-.62-.48-.1-.07-.21-.15-.3-.23l-.03-.02-.02,.03c-.09,.18-.14,.32-.16,.45-.03,.2,0,.32,.11,.45,.01,.01,.03,.03,.04,.04"></path>
        <path class="n" d="M71.91,34.3c.5,3.12,3.81,4.15,6.12,4.31,.78,.05,1.57-.2,2.29-.48,.7-.27,1.37-.62,2.1-.79,.8-.18,1.61-.05,2.38,.21,1.11,.38,2.11,1.07,2.84,2,1.22,1.58,1.51,3.79,.86,5.67-.17,.48-.4,.95-.68,1.37-.1,.14-.11,.32,.03,.44,.12,.1,.34,.12,.44-.03,1.17-1.69,1.48-3.88,.88-5.85-.59-1.95-2.15-3.47-4.02-4.16,1.18,.23,2.31,.76,3.24,1.54,.87,.73,1.56,1.68,2.02,2.72,.47,1.09,.63,2.26,.61,3.44,0,.06,0,.11,0,.17-.08,.13-.16,.27-.22,.41-.03,.07-.1,.48,.05,.3-.05,.06-.09,.13-.13,.19-.25,.4-.67,.76-.83,1.21-.1,.25-.05,.51-.15,.75-.05,.14-.23,.39-.4,.34-.07-.02-.29-.25-.2,0,.07,.21,.49,.21,.64,.18,.43-.1,.69-.4,.88-.77-.14,.48-.53,.95-.93,1.22-.46,.31-1.01,.33-1.49,.58-.2,.11-.38,.28-.53,.46-.1,.12-.18,.26-.36,.28-.31,.03-.66-.3-.73-.59-.03-.13,0-.29,.08-.4,.1-.15,.17-.1,.32-.08,.09,0,.27,0,.16-.16-.11-.15-.35,0-.43,.1-.5,.51-.36,1.39,.16,1.82,.5,.42,1.02,.62,1.68,.49,.33-.07,.64-.24,.91-.46h.01s.6-.4,1.02-1.44c-.1,.88-.15,1.77-.07,2.66,.19,2.21,1.38,4.48,3.65,5.04,.95,.23,2.02,.08,2.82-.5,.92-.68,1.4-1.87,1.29-3-.11-1.12-.76-2.12-1.7-2.72-.92-.58-2.08-.64-3.02-.09-.72,.43-1.21,1.22-1.21,2.07,0,.78,.46,1.53,1.13,1.91,.72,.42,1.75,.23,2.16-.54,.26-.47,.08-1.05-.3-1.36,0,0-.01-.02-.02-.03-.3-.31-1.12-.47-1.17,.16-.02,.27,.28,.43,.12,.7-.09,.15-.27,.22-.45,.21-.17-.02-.33-.11-.45-.22-.5-.46-.49-1.17-.15-1.74,.54-.91,1.72-1.11,2.63-.75,.99,.4,1.68,1.36,1.8,2.42,.12,1.09-.44,2.18-1.4,2.68-.84,.43-1.9,.29-2.72-.11-.98-.48-1.63-1.44-2.01-2.44-.41-1.11-.48-2.32-.41-3.49,.11-1.59,.45-3.16,.57-4.75,.19,.98,.69,1.38,.69,1.38h0c.17,.17,.37,.3,.59,.37,.43,.13,.79,.03,1.15-.23,.38-.26,.52-.84,.21-1.21-.05-.07-.2-.19-.28-.09-.08,.1,.03,.12,.1,.12,.1,0,.15-.03,.21,.07,.05,.08,.05,.19,.03,.28-.06,.19-.32,.39-.52,.35-.12-.02-.17-.12-.23-.21-.09-.12-.2-.25-.33-.34-.31-.2-.68-.24-.96-.48-.26-.21-.49-.55-.56-.88,.1,.26,.27,.48,.55,.57,.11,.03,.38,.05,.44-.08,.08-.17-.09-.02-.13-.02-.12,.02-.23-.16-.25-.26-.05-.17,0-.34-.06-.51-.09-.31-.34-.58-.49-.86-.02-.05-.05-.1-.07-.14,.08,.13,.06-.15,.05-.2-.03-.1-.09-.21-.13-.31-.07-.16-.11-.34-.18-.51v.12c-.68-2.95-3.16-5.41-6.11-5.98-.87-.17-1.77-.19-2.65-.07-2.25,.26-3.68,1.13-3.89,.13-.17-.79,2.31-1.35,5.08-.56-1.05-1.24-2.39-1.79-3.69-1.7-.73-.06-1.46-.04-2.18,.06-.59,.08-1.16,.23-1.73,.38-.54,.14-1.14,.24-1.68,.03-.94-.35-1.05-1.72-.1-2.15,.45-.2,1.02-.11,1.29,.34,.22,.36-.16,.98-.55,.64,0,0-.01-.01-.02-.02-.25-.32-.77,.02-.52,.35,.33,.43,.95,.52,1.38,.18,.46-.36,.48-1,.23-1.49-.26-.51-.89-.74-1.42-.73-.51,.02-.99,.29-1.31,.68-.7,.86-.35,2.16,.58,2.68,1.07,.61,2.33,.02,3.43-.19,.24-.05,.48-.08,.72-.11-.09,.06-.19,.13-.28,.2-1.76,1.37-3.1,2.14-6.04-.76"></path>
        <path class="n" d="M250.42,42.7v.06l-.02,.08c-.03,.26-.06,.48-.08,.68,0,.21-.01,.42-.02,.62,0,.09,0,.17,0,.27v.05l.05-.02c.07-.04,.14-.08,.21-.12h0c.17-.12,.3-.23,.41-.33,.22-.19,.35-.35,.44-.53h0c.05-.12,.07-.27,.09-.46v-.03h-.03c-.08,.02-.17,.02-.25,.02-.32,0-.58-.09-.75-.25l-.04-.04Z"></path>
        <path class="n" d="M251.21,40.76c-.23,.2-.41,.46-.55,.79l-.02,.05h.05s.06-.01,.09-.01c.1,0,.2,.02,.3,.06,.12,.05,.22,.09,.31,.13,.03,.01,.06,.02,.1,.04h.03c.03-.07,.07-.14,.1-.23h0c.05-.23,.13-.44,.23-.63,.11-.25,.24-.44,.42-.6,.04-.03,.08-.07,.12-.1l.11-.08-.13,.03c-.48,.11-.86,.29-1.17,.56"></path>
        <path class="n" d="M256.53,44.11c.13,0,.16-.03,.17-.05,.02-.02,.04-.05,.02-.16-.02-.12-.1-.29-.22-.48-.05-.07-.1-.14-.15-.2-.24-.28-.56-.42-.93-.42-.15,0-.32,.02-.48,.07h0c-.22,.17-.44,.31-.65,.45-.3,.2-.58,.38-.85,.62-.03,.03-.06,.06-.09,.09l-.02,.02c-.3,.33-.53,.63-.67,.91-.24,.48-.28,.89-.14,1.3l.02,.06,.03-.05c.12-.18,.29-.38,.52-.6h0c.27-.37,.54-.68,.81-.92,.17-.15,.35-.28,.51-.36,.17-.09,.3-.19,.4-.27,.08-.06,.15-.12,.24-.16,.1-.06,.21-.09,.34-.09,.14,0,.3,.03,.48,.1,.28,.11,.53,.15,.68,.15"></path>
        <path class="n" d="M256.48,44.47h-.02c-.08,0-.15-.03-.24-.06-.02-.01-.05-.02-.08-.03-.02,0-.03-.01-.05-.02-.02,0-.03-.01-.05-.02l-.06-.02,.02,.06c.1,.32,.02,.7-.24,1.09h0c-.14,.38-.39,.76-.71,1.11-.07,.08-.15,.15-.22,.22-.01,.01-.03,.03-.04,.03,0,0-.02,.02-.03,.02-.45,.4-.91,.61-1.29,.61h-.03c-.24-.04-.45-.12-.63-.23l-.07-.04,.02,.07c.08,.25,.22,.5,.39,.69,.08,.09,.16,.16,.25,.23,.08,.05,.16,.09,.23,.12h0s0,0,.01,.01h0c.09,.03,.17,.05,.25,.05,.03,0,.07,0,.1,0,.26-.05,.48-.17,.74-.4,.12-.11,.25-.23,.37-.37,.12-.13,.25-.27,.39-.39,.13-.12,.25-.21,.38-.28,.09-.05,.17-.1,.24-.17,.46-.41,.58-1.17,.36-2.25v-.02Z"></path>
        <path class="n" d="M250.51,42h0s0,.07-.01,.11c0,.03,0,.05,0,.08h0c0,.12,.02,.26,.09,.34,0,0,0,.01,.02,.02,.07,.1,.28,.21,.63,.21,.17,0,.35-.03,.54-.08h.02v-.02s.03-.04,.05-.06h.01s.04-.04,.06-.04c.12-.02,.32-.08,.55-.16l.06-.02h0s.03-.01,.03-.02c.01,0,.03-.01,.04-.02,.34-.19,.66-.28,.97-.28,.37,0,.68,.12,.99,.24,.26,.1,.51,.19,.77,.21,.12,.01,.24,.02,.35,.03,.49,.04,.96,.07,1.28,.34h0c.06,.04,.12,.08,.19,.13l.04,.03v-.04c.02-.05,.03-.1,.03-.15h0c-.02-.08-.06-.14-.11-.21-.2-.25-.64-.38-1.1-.52-.3-.09-.62-.19-.86-.31h0c-.06-.02-.12-.03-.16-.04-.11-.02-.23-.08-.36-.14-.2-.09-.4-.19-.62-.19h0c-.28,.04-.57,.17-1.02,.43-.37,.23-.65,.33-.92,.33-.05,0-.1,0-.14,0-.21-.03-.39-.11-.6-.2-.09-.04-.19-.08-.3-.12-.09-.03-.17-.05-.23-.05-.07,0-.12,.02-.17,.06-.04,.03-.07,.08-.09,.15"></path>
        <path class="n" d="M251.91,41.39c-.04,.12-.08,.25-.14,.38l-.02,.03h.04c.07,.02,.14,.03,.21,.03,.38,0,.78-.19,1.16-.37,.12-.06,.25-.12,.37-.18,.13-.06,.28-.08,.41-.08,.32,0,.59,.14,.79,.24,.11,.06,.2,.1,.27,.1,.22,.04,.62,.14,1.08,.31l.05,.02v-.05c-.04-.31-.09-.53-.14-.68h0v-.02h-.02c-.15-.18-.28-.32-.43-.46h0c-.06-.04-.12-.08-.19-.12-.13-.07-.27-.15-.45-.26-.38-.24-.66-.33-.93-.33-.03,0-.06,0-.09,0-.24,.04-.5,.12-.8,.22l-.05,.02c-.24,.08-.43,.19-.59,.33-.28,.25-.39,.57-.5,.88"></path>
        <path class="n" d="M251.11,46.58s.09,.07,.13,.11c.06,.04,.12,.08,.17,.12,.04,.03,.1,.06,.15,.08,.06,.02,.11,.03,.14,.03,.03,0,.06,0,.09-.02h0s.02-.02,.03-.03h0c.15-.13,.26-.46,.28-.71,0-.05,0-.09,0-.12v-.02h-.03s-.02-.02-.02-.02c-.12-.11-.27-.21-.44-.31h0c-.1-.04-.22-.1-.23-.17,0-.04,.02-.09,.08-.15,.14-.14,.25-.27,.33-.4h0c.12-.25,.2-.57,.25-.99,.01-.11,.04-.23,.08-.35,.06-.22,.17-.43,.33-.63,.1-.12,.2-.24,.31-.34,.06-.05,.13-.1,.18-.15l.15-.11-.18,.06h-.02s-.02,0-.02,.01c-.12,.04-.25,.08-.36,.12-.21,.07-.4,.14-.56,.17h-.02c-.14,.2-.19,.34-.24,.5-.01,.04-.03,.08-.04,.11-.07,.2-.19,.44-.55,.76h0c-.13,.12-.29,.25-.48,.39-.1,.07-.19,.14-.26,.2-.38,.36-.36,.51-.27,.72,.01,.03,.03,.06,.05,.09,.04,.06,.08,.12,.13,.17,.09,.12,.18,.23,.2,.38,0,.1,.04,.14,.08,.19,.05,.07,.16,.12,.3,.2,.05,.03,.11,.05,.16,.08h.02s.05,.01,.07,.03"></path>
        <path class="n" d="M252.74,47.91c-.25-.29-.38-.63-.36-.98h0s-.03-.12-.06-.22l-.02-.07-.03,.07c-.07,.14-.15,.24-.23,.32-.09,.08-.2,.13-.32,.13-.07,0-.15-.02-.22-.05-.13-.05-.25-.14-.34-.21l-.03-.03v.04c-.09,.31-.08,.5-.04,.68,.05,.18,.13,.35,.26,.49,.28,.33,.74,.52,1.23,.52,.27,0,.53-.06,.76-.18l.05-.02-.05-.03c-.24-.14-.43-.3-.59-.47"></path>
        <path class="n" d="M250.91,47.85c-.07-.27-.13-.54,0-1.03v-.02h-.02c-.07-.04-.18-.09-.36-.17-.1-.04-.18-.1-.24-.17-.12-.17-.15-.33-.17-.47-.02-.12-.03-.22-.1-.28h0s-.04-.04-.05-.06c-.02-.03-.05-.05-.07-.07-.04-.04-.16-.18-.11-.36,.04-.15,.13-.3,.28-.53h0v-.02c-.04-.62,.02-1.13,.12-1.9,.01-.08,.03-.17,.03-.26v-.05l-.04,.02c-.32,.16-.56,.32-.74,.48-.07,.07-.14,.14-.2,.22h0c-.13,.22-.22,.52-.24,.83-.03,.43,.08,.83,.27,1.05,.01,.01,.02,.03,.04,.04h0v.02h.02c.06,.05,.12,.1,.18,.16,.09,.1,.12,.24,.1,.42h0c.06,.27,.07,.57,.08,.85,0,.3,.02,.58,.09,.81,.04,.13,.1,.25,.2,.35,.17,.21,.45,.33,.72,.33,.07,0,.14,0,.21-.02h.03v-.03s-.02-.07-.03-.1"></path>
        <path class="n" d="M256.68,43l-.08-.03,.05,.08c.12,.17,.22,.35,.29,.51,.13,.29,.21,.58,0,.79-.04,.04-.09,.06-.14,.08h-.03v.04c.19,.65,.16,1.28-.07,1.92l-.02,.06,.06-.03c.11-.05,.2-.1,.29-.18,.45-.39,.52-1.16,.57-1.66,0-.12,.02-.23,.03-.32,.04-.18-.11-.54-.36-.81-.17-.21-.4-.37-.6-.44"></path>
        <path class="n" d="M253.28,43.77c.29-.25,.59-.45,.89-.64,.19-.12,.39-.25,.58-.4l.05-.03-.05-.02c-.14-.05-.28-.1-.41-.16h-.04c-.18-.09-.34-.16-.41-.18h-.01c-.36,.09-.68,.25-.95,.49-.43,.38-.62,.86-.66,1.18-.09,.73-.25,1.16-.55,1.44l-.03,.02,.03,.02c.08,.05,.2,.12,.33,.21l.03,.03v-.04c.29-.84,.67-1.45,1.2-1.93"></path>
        <path class="n" d="M253.31,45.9s-.04-.04-.06-.07l-.02-.03-.02,.02c-.22,.21-.38,.4-.48,.57-.12,.21-.12,.34-.07,.39,0,.02,.02,.03,.03,.05,.15,.17,.45,.35,.78,.35,.11,0,.22-.02,.32-.05,.38-.13,.67-.29,.91-.51,.12-.11,.23-.23,.33-.37l.07-.1-.1,.06c-.22,.11-.44,.17-.66,.17h-.02c-.37,0-.73-.17-.99-.48"></path>
        <path class="n" d="M255.41,45.55c.56-.68,.45-1.09,.27-1.31-.07-.07-.15-.13-.23-.15-.03,0-.06-.01-.09-.01-.09,0-.17,.04-.27,.12-.02,.02-.04,.04-.06,.06l-.03,.03v.02c.09,.15,.17,.33,.2,.52,.03,.15,.02,.3-.04,.43h0c-.04,.14-.1,.25-.2,.34-.2,.17-.48,.25-.87,.25-.12,0-.27,0-.41-.03h-.12l.1,.05c.22,.15,.46,.23,.7,.23,.3,0,.59-.12,.85-.35,.07-.06,.13-.13,.19-.2"></path>
        <path class="n" d="M254.85,45.36s.03-.03,.05-.04c.11-.12,.14-.25,.11-.45-.02-.12-.08-.26-.17-.45l-.02-.03-.02,.02c-.1,.07-.21,.15-.31,.22-.22,.15-.44,.32-.62,.48-.17,.15-.29,.29-.35,.42l-.02,.03h.03c.14,.04,.29,.06,.44,.06,.36,0,.7-.1,.87-.26"></path>
        <path class="n" d="M240.27,58.74c.81,.59,1.87,.74,2.82,.5,2.27-.56,3.45-2.82,3.65-5.04,.08-.89,.03-1.77-.07-2.65,.42,1.04,1.02,1.44,1.02,1.44h.01c.27,.23,.58,.4,.91,.47,.65,.13,1.17-.07,1.67-.48,.52-.43,.66-1.31,.16-1.82-.09-.09-.32-.25-.43-.09-.11,.15,.07,.17,.15,.16,.14-.02,.22-.07,.32,.08,.08,.11,.1,.27,.07,.4-.07,.28-.43,.61-.73,.59-.18-.01-.26-.15-.36-.28-.14-.18-.33-.35-.53-.46-.48-.25-1.03-.27-1.49-.58-.41-.27-.79-.74-.93-1.22,.19,.38,.46,.67,.88,.77,.16,.03,.57,.03,.64-.18,.09-.26-.13-.03-.2-.01-.18,.05-.35-.21-.41-.34-.1-.24-.05-.51-.14-.76-.17-.45-.58-.81-.84-1.21-.04-.06-.08-.13-.12-.19,.14,.18,.08-.23,.05-.3-.06-.14-.15-.28-.22-.41,0-.06,0-.11,0-.17-.02-1.18,.14-2.35,.61-3.43,.45-1.05,1.14-1.99,2.01-2.72,.94-.79,2.06-1.31,3.25-1.54-1.87,.69-3.43,2.21-4.02,4.16-.59,1.97-.28,4.15,.88,5.85,.1,.14,.32,.13,.44,.03,.14-.12,.12-.3,.03-.45-.29-.42-.52-.89-.69-1.37-.65-1.88-.36-4.09,.86-5.67,.72-.93,1.73-1.63,2.84-2.01,.77-.26,1.57-.39,2.37-.21,.73,.17,1.41,.52,2.1,.79,.73,.28,1.5,.54,2.29,.48,2.31-.17,5.62-1.19,6.12-4.31-2.94,2.91-4.28,2.13-6.04,.76-.09-.07-.19-.14-.28-.2,.24,.03,.48,.06,.72,.11,1.09,.21,2.35,.8,3.43,.19,.92-.52,1.28-1.82,.57-2.68-.31-.39-.8-.66-1.3-.68-.54-.02-1.17,.22-1.43,.73-.25,.49-.22,1.13,.24,1.49,.43,.34,1.04,.25,1.37-.18,.25-.32-.27-.66-.52-.35,0,0-.01,.02-.02,.02-.39,.33-.77-.28-.55-.64,.27-.45,.84-.55,1.29-.34,.95,.43,.84,1.79-.1,2.15-.54,.2-1.13,.1-1.68-.04-.57-.15-1.14-.3-1.72-.38-.73-.1-1.46-.12-2.19-.06-1.29-.09-2.65,.46-3.69,1.7,2.77-.78,5.25-.23,5.08,.56-.21,1-1.64,.12-3.89-.13-.88-.12-1.79-.1-2.66,.06-2.95,.57-5.43,3.04-6.12,5.98l.02-.11c-.06,.16-.11,.34-.18,.5-.05,.1-.1,.2-.13,.31-.01,.05-.03,.33,.05,.2-.03,.04-.05,.09-.08,.14-.15,.28-.4,.55-.49,.86-.05,.17,0,.35-.05,.51-.03,.1-.13,.28-.26,.25-.04,0-.2-.15-.13,.02,.06,.14,.34,.11,.44,.08,.28-.09,.44-.3,.55-.57-.07,.33-.3,.67-.56,.88-.29,.23-.66,.28-.96,.48-.13,.08-.24,.21-.33,.34-.06,.09-.1,.19-.22,.21-.21,.03-.46-.16-.53-.35-.03-.09-.02-.2,.03-.28,.06-.1,.11-.08,.21-.07,.06,0,.17-.02,.1-.12-.08-.1-.23,.02-.29,.09-.3,.37-.16,.95,.22,1.21,.36,.25,.72,.35,1.15,.23,.22-.06,.42-.2,.58-.36h0s.5-.4,.69-1.38c.12,1.59,.46,3.16,.57,4.75,.08,1.18,0,2.38-.4,3.49-.37,1.01-1.03,1.96-2,2.44-.82,.41-1.88,.55-2.72,.11-.96-.5-1.53-1.59-1.4-2.68,.12-1.06,.81-2.02,1.8-2.42,.91-.37,2.1-.16,2.63,.75,.33,.56,.34,1.27-.15,1.73-.13,.12-.29,.21-.46,.23-.17,.01-.35-.06-.44-.21-.16-.27,.14-.43,.12-.7-.04-.64-.86-.47-1.16-.16,0,0-.01,.02-.02,.03-.38,.32-.55,.9-.3,1.37,.42,.76,1.44,.95,2.17,.53,.66-.38,1.13-1.13,1.13-1.91,0-.85-.49-1.64-1.21-2.07-.93-.55-2.1-.49-3.02,.09-.93,.59-1.59,1.59-1.7,2.71-.11,1.14,.36,2.33,1.29,3"></path>
      </g>
      <g class="w">
        <path class="n" d="M217.11,117.53c0,.07,.02,.14-.1,.16-1.62-.12-3.43-.04-4.88,.45-.46,.11-.89,.21-1.3,.38-3.23,1.13-6.2,2.68-9.78,3.28-.13-.04-.31,.06-.38-.06l.02-.11c4.15-.5,6.92-3.13,10.93-3.87,1.68-.37,3.66-.44,5.49-.23"></path>
        <path class="n" d="M205.52,119.12c-.02,.06-.05,.13-.15,.13-2.29-.9-5.24-1.49-7.96-.84l-.02,.09-.1-.06c-1.17,.31-2.72,.93-2.82,1.93-.05,.72,.56,1.34,1.45,1.7,2.57,1.07,6.38,.82,8.92-.18,2.44-.91,4.73-2.04,7.24-2.83,2.72-.82,5.92-1.42,9.08-1,1.52,.3,3.35,.77,3.99,1.97,.33,.77,.18,1.54-.63,2.14-1.45,1.08-3.51,1.44-5.59,1.54-2.41,.01-4.7-.41-6.68-1.29,.02-.07,.1-.16,.21-.16,3.02,1.32,7.57,1.65,10.8,.34,.91-.43,1.83-1.11,1.7-1.93-.05-1.06-1.52-1.88-2.82-2.18-3.33-.75-7.17-.12-9.91,1.16-3.41,1.49-6.68,3.28-10.95,3.38-2.21,.09-4.42-.09-6.13-1.08-.76-.48-1.29-1.21-.91-1.95,.79-1.54,3.18-1.95,5.26-2.11,2.26-.05,4.27,.41,6.05,1.22"></path>
      </g>
      <g>
        <path class="n" d="M184.89,125.51c.03,.1-.04,.25-.18,.25-2.87-.56-5.67,.07-8.13,.9-4.6,1.46-8.71,3.7-13.77,4.46-.17,0-.35,.08-.48,0v-.2c6.16-.68,10.17-4.9,16.4-5.56,2.04-.29,4.22-.17,6.16,.15"></path>
        <path class="n" d="M93.4,142.91c-.61-.04-1.28-.2-1.99-.5-.51-.21-1.05-.45-1.59-.74-.23-.11-.44-.23-.67-.36-.8-.43-1.62-.9-2.48-1.38-.84-.51-1.7-.95-2.56-1.36-.84-.43-1.69-.78-2.56-1.06-.84-.29-1.68-.43-2.52-.43-.3,0-.65,.04-1.05,.11-.4,.09-.8,.2-1.22,.36-.4,.16-.8,.36-1.17,.59-.36,.23-.67,.5-.92,.81-.06,.14-.04,.22,.04,.23,.1,.04,.21,0,.38-.07,.94-1.03,2.29-1.53,3.99-1.53,.78,0,1.7,.29,2.77,.86,1.09,.58,2.26,1.22,3.54,1.92,1.28,.7,2.62,1.35,4.03,1.94,.12,.05,.27,.11,.4,.14,1.26,.5,2.52,.76,3.77,.77,.1-.07,.14-.14,.1-.22-.04-.07-.15-.09-.29-.09"></path>
        <path class="n" d="M106.96,139.26c-.23,0-.42,.09-.56,.27-.12,.18-.23,.38-.3,.59-.06,.2-.1,.4-.15,.58-.02,.2-.04,.28-.04,.32,0,.29-.21,.56-.63,.81-.44,.23-.95,.45-1.53,.65-.61,.18-1.22,.32-1.86,.43-.63,.09-1.18,.14-1.64,.14-1.82,0-3.57-.28-5.22-.88-.55-.19-1.1-.41-1.65-.64,.31,.13,.83,.15,1.17,.21,.42,.06,.83,.11,1.25,.15,.84,.08,1.69,.12,2.54,.11,1.63-.02,3.28-.23,4.78-.71,3.12-1.01,5.11-3.4,4.98-5.99,0-.17-.03-.34-.05-.51-.31-1.93-1.83-3.72-3.96-4.79-2.14-1.07-4.86-1.41-7.35-.99-1.83,.31-3.57,1.03-4.76,2.14-2.13,1.98-1.91,4.89,.31,6.77,1.26,1.07,3.07,1.69,4.96,1.66,2.19-.03,4.07-1.18,4.54-2.81,.43-1.47-.95-2.91-2.83-3.21-1.54-.24-3.57,.91-2.42,2.12,.47,.49,1.32,.6,2.05,.49,.84-.13,1.41-.73,1.75-1.31,.46,.45,.7,1.05,.67,1.59-.07,1.21-1.47,2.08-2.88,2.38-1.44,.31-2.98-.04-4.2-.63-2.31-1.13-3.05-3.35-2.3-5.28,.46-1.19,1.56-2.02,2.9-2.67,1.35-.65,3.03-.88,4.6-.66,1.96,.28,3.71,1.26,4.74,2.57,1.02,1.31,1.33,2.92,.94,4.41-.31,1.19-1.1,2.33-2.3,3.14-1.33,.9-3.11,1.19-4.85,1.23-.97,.02-1.94-.04-2.9-.15-2.55-.31-4.95-1.17-6.94-2.4-1.19-1.08-2.07-2.36-2.55-3.76-.37-1.06-.91-3.16,.82-3.7,.78-.25,1.59,.39,1.57,.52-.14,.64-.29,1.28-.43,1.92-.03,.14,.05,.25,.16,.32,.11,.13,.32,.2,.53,.09,1.47-.7,1.74-2.33,.35-3.19-1.56-.95-3.58-.1-4.07,1.2-.6,1.62,.37,3.69,1.3,5.13,.08,.12,.17,.25,.27,.38-1.21-.76-2.43-1.47-3.69-2.11-1.36-.7-2.79-1.29-4.26-1.76-1.49-.47-3.02-.7-4.68-.7-2.1,0-3.67,.32-4.67,.99-1.03,.66-1.53,1.54-1.53,2.6,0,.56,.12,1.02,.4,1.44,.28,.4,.61,.73,1.01,1.02,.4,.27,.83,.47,1.3,.61,.48,.15,.9,.22,1.26,.22,.19,0,.13-.03-.15-.14-.29-.11-.65-.29-1.09-.56-.42-.25-.84-.59-1.24-.99-.38-.41-.59-.92-.59-1.51,0-.32,.08-.66,.23-1.06,.15-.4,.4-.75,.71-1.08,.31-.33,.74-.61,1.28-.84,.52-.23,1.15-.36,1.89-.36,1.61,0,3.16,.25,4.61,.74,1.44,.48,2.89,1.1,4.32,1.83,1.4,.76,2.81,1.57,4.21,2.44,1.41,.9,2.88,1.72,4.41,2.48,.08,.05,.19,.11,.29,.15,1.47,.75,2.98,1.38,4.55,1.9,1.68,.56,3.52,.84,5.51,.84,1.45,0,2.66-.12,3.67-.4,1.01-.25,1.83-.57,2.47-.93,.89-.51,1.63-1.18,1.79-2.04,.03-.18,.04-.37-.06-.54-.15-.24-.46-.28-.78-.28"></path>
        <path class="n" d="M246.76,144.18c-.04,.07,0,.14,.11,.21,1.26-.02,2.52-.27,3.77-.77,.13-.04,.27-.09,.4-.14,1.4-.59,2.75-1.24,4.02-1.94,1.28-.7,2.45-1.35,3.54-1.93,1.07-.57,1.99-.86,2.77-.86,1.7,0,3.04,.5,3.99,1.53,.17,.07,.27,.11,.38,.07,.08-.02,.1-.09,.04-.23-.25-.31-.56-.58-.92-.81-.38-.23-.78-.43-1.17-.59-.42-.16-.82-.27-1.22-.36-.4-.07-.75-.11-1.04-.11-.84,0-1.68,.15-2.52,.43-.86,.28-1.72,.63-2.56,1.06-.86,.41-1.72,.86-2.56,1.37-.86,.48-1.68,.95-2.48,1.38-.23,.12-.44,.25-.67,.36-.54,.29-1.09,.52-1.6,.73-.71,.31-1.38,.47-1.99,.5-.15,0-.25,.02-.29,.09"></path>
        <path class="n" d="M232.7,140.71c-.1,.17-.1,.36-.06,.54,.16,.86,.9,1.54,1.79,2.05,.65,.36,1.46,.68,2.48,.93,1.01,.27,2.22,.4,3.67,.4,1.99,0,3.84-.29,5.52-.84,1.57-.52,3.08-1.15,4.55-1.9,.1-.04,.21-.09,.29-.15,1.53-.75,3-1.58,4.4-2.48,1.41-.88,2.81-1.69,4.21-2.44,1.43-.73,2.88-1.35,4.33-1.83,1.44-.48,3-.73,4.61-.73,.73,0,1.36,.12,1.89,.36,.54,.23,.96,.52,1.28,.84,.32,.33,.56,.68,.71,1.08,.15,.4,.23,.74,.23,1.06,0,.59-.21,1.1-.59,1.51-.4,.39-.82,.73-1.24,.99-.44,.27-.8,.45-1.09,.56-.28,.11-.34,.14-.15,.14,.35,0,.77-.07,1.26-.21,.46-.15,.9-.34,1.3-.61,.4-.29,.73-.63,1.01-1.02,.27-.41,.4-.88,.4-1.44,0-1.06-.5-1.94-1.53-2.6-1.01-.67-2.58-.99-4.68-.99-1.66,0-3.18,.23-4.67,.7-1.47,.47-2.9,1.06-4.26,1.76-1.26,.64-2.48,1.35-3.69,2.11,.09-.12,.18-.25,.27-.38,.93-1.43,1.9-3.51,1.3-5.12-.48-1.3-2.51-2.15-4.07-1.2-1.39,.85-1.11,2.49,.35,3.18,.22,.1,.42,.03,.53-.09,.12-.07,.2-.18,.16-.32l-.43-1.92c-.03-.12,.79-.76,1.57-.52,1.73,.54,1.19,2.64,.82,3.7-.49,1.4-1.36,2.68-2.55,3.75-1.99,1.24-4.39,2.1-6.93,2.4-.96,.12-1.93,.18-2.9,.15-1.74-.04-3.52-.33-4.85-1.23-1.2-.81-1.99-1.95-2.3-3.14-.39-1.49-.08-3.11,.94-4.41,1.03-1.31,2.78-2.29,4.74-2.57,1.57-.22,3.24,0,4.6,.66,1.34,.64,2.43,1.48,2.9,2.67,.75,1.94,.02,4.15-2.3,5.28-1.22,.59-2.76,.94-4.2,.63-1.41-.3-2.81-1.17-2.88-2.38-.03-.54,.21-1.14,.67-1.58,.35,.57,.91,1.18,1.75,1.3,.73,.11,1.58,0,2.05-.49,1.15-1.21-.89-2.36-2.42-2.12-1.88,.3-3.25,1.73-2.83,3.21,.47,1.63,2.35,2.78,4.54,2.8,1.89,.03,3.7-.59,4.96-1.66,2.22-1.89,2.45-4.79,.31-6.77-1.19-1.11-2.92-1.83-4.76-2.14-2.5-.42-5.21-.08-7.35,.99-2.14,1.06-3.66,2.85-3.97,4.79-.02,.17-.04,.34-.05,.51-.13,2.6,1.86,4.98,4.98,5.99,1.51,.49,3.15,.69,4.78,.71,.85,0,1.7-.03,2.54-.11,.42-.04,.83-.09,1.25-.15,.35-.06,.87-.07,1.18-.2-.55,.23-1.1,.45-1.65,.64-1.66,.59-3.4,.88-5.22,.88-.46,0-1.01-.05-1.63-.14-.65-.11-1.26-.25-1.87-.43-.59-.2-1.09-.41-1.53-.65-.42-.25-.63-.52-.63-.81,0-.04-.02-.12-.04-.32-.04-.18-.08-.38-.15-.58-.06-.22-.17-.41-.3-.59-.15-.18-.33-.27-.56-.27-.32,0-.63,.03-.78,.28"></path>
        <path class="q" d="M243.26,72.08v37.29c0,1.11,.07,2.25-.35,2.92-.46,.74-1.29,1.11-2.25,1.35-.31,.03-.62,.06-.93,.1-.48,.1-1.49-.12-1.83-.23-.98-.29-1.72-.75-2.09-1.64-.31-.74-.16-2.06-.16-3.05v-36.91c0-.89-.14-2.14,.22-2.7,.42-.65,1.29-1.09,2.09-1.35,.32-.1,.97-.09,1.22-.26,1.79,0,3.44,.57,3.95,1.8,.27,.64,.13,1.82,.13,2.67m4.27,36.68v-37.16c0-1.47,0-2.76-.55-3.66-1.43-2.35-4.22-3.63-8.09-3.56-.18,.11-.54,.01-.77,.06-.51,.11-1.06,.13-1.54,.29-1.99,.64-3.73,1.55-4.72,3.18-.56,.92-.55,2.21-.55,3.73v37.26c0,1.73-.07,3.47,.45,4.66,.68,1.57,2.08,2.14,3.79,2.7,.52,.17,1.13,.28,1.7,.42,.76,.12,2.79,.13,3.08,.13,.52-.04,1.05-.08,1.57-.13,2.09-.49,3.94-.96,4.91-2.54,.78-1.27,.71-3.3,.71-5.36"></path>
        <path class="q" d="M263,72.08v37.29c0,1.11,.07,2.25-.35,2.92-.46,.74-1.29,1.11-2.25,1.35-.31,.03-.62,.06-.93,.1-.48,.1-1.49-.12-1.83-.23-.98-.29-1.72-.75-2.09-1.64-.31-.74-.16-2.06-.16-3.05v-36.91c0-.89-.14-2.14,.23-2.7,.42-.65,1.29-1.09,2.09-1.35,.32-.1,.97-.09,1.22-.26,1.79,0,3.44,.57,3.95,1.8,.27,.64,.13,1.82,.13,2.67m4.27,36.68v-37.16c0-1.47,0-2.76-.55-3.66-1.43-2.35-4.22-3.63-8.09-3.56-.18,.11-.54,.01-.77,.06-.51,.11-1.06,.13-1.54,.29-1.99,.64-3.73,1.55-4.72,3.18-.56,.92-.55,2.21-.55,3.73v37.26c0,1.73-.07,3.47,.45,4.66,.68,1.57,2.08,2.14,3.79,2.7,.52,.17,1.13,.28,1.7,.42,.76,.12,2.79,.13,3.08,.13,.52-.04,1.05-.08,1.57-.13,2.09-.49,3.94-.96,4.91-2.54,.78-1.27,.71-3.3,.71-5.36"></path>
        <path class="q" d="M81.63,93.12h-3.66c.01-.69,1.98-13.62,1.99-13.62,.25,1.94,1.67,13.28,1.67,13.62m7.55,23.8c-2.44-17.47-4.88-34.95-7.32-52.42h-3.66c-.01,.45-4.27,28.2-4.27,28.62h-3.82v3.24h3.25c-.97,6.85-1.95,13.71-2.92,20.56h4.18c.99-6.85,1.97-13.71,2.96-20.56h4.56c1.04,6.83,2.08,13.66,3.12,20.49v.06h3.95Z"></path>
        <path class="q" d="M101.79,93.12h-3.66c.01-.69,1.98-13.62,1.99-13.62,.25,1.94,1.67,13.28,1.67,13.62m7.55,23.8c-2.44-17.47-4.88-34.95-7.32-52.42h-3.66c-.01,.45-4.27,28.2-4.27,28.62h-3.82v3.24h3.25c-.97,6.85-1.95,13.71-2.92,20.56h4.18c.99-6.85,1.97-13.71,2.96-20.56h4.56c1.04,6.83,2.08,13.66,3.12,20.49v.06h3.95Z"></path>
        <path class="q" d="M137.12,93.12h-3.66c.01-.69,1.98-13.62,1.99-13.62,.25,1.94,1.67,13.28,1.67,13.62m7.55,23.8c-2.44-17.47-4.88-34.95-7.32-52.42h-3.66c-.01,.45-4.27,28.2-4.27,28.62h-3.82v3.24h3.24c-.97,6.85-1.95,13.71-2.92,20.56h4.18c.98-6.85,1.97-13.71,2.95-20.56h4.56c1.04,6.83,2.08,13.66,3.12,20.49v.06h3.95Z"></path>
        <path class="q" d="M109.05,64.5h4.18v.03h.03c0,.37,.06,.75,.13,1.06,.1,.44,.07,.91,.16,1.32,.18,.77,.12,1.6,.29,2.35,.05,.54,.11,1.07,.16,1.61,.32,1.42,.26,3.01,.58,4.43,.09,.79,.17,1.58,.26,2.38,.13,.57,.13,1.26,.26,1.83,0,.18,.02,.36,.03,.55,.11,.5,.07,1.04,.19,1.57,.09,.41,.06,.87,.16,1.32,.32,1.42,.26,3.01,.58,4.43,.14,.64,.05,1.23,.19,1.86,.09,.41,.06,.87,.16,1.32,.32,1.42,.26,3.01,.58,4.43,.14,.63,.09,1.27,.22,1.86,.19,.85,.14,1.78,.32,2.6,.07,.3,0,.58,.1,.84h.03v-.19c.15-.24,.08-.63,.16-.93,.17-.67,.18-1.39,.35-2.09,.51-2.03,.58-4.24,1.09-6.26,.05-.39,.11-.77,.16-1.16,.44-1.78,.51-3.72,.96-5.49,.13-.52,.09-1.02,.22-1.54,.32-1.28,.39-2.7,.71-3.98,.05-.38,.11-.77,.16-1.16,.25-.96,.31-2.06,.55-3.02,.03-.26,.06-.51,.1-.77,.21-.85,.23-1.79,.45-2.67,.15-.6,.16-1.26,.32-1.9,.37-1.49,.49-3.1,.8-4.62h4.18c0,.59-.19,1.35-.32,1.9-.26,1.06-.29,2.18-.55,3.21-.16,.64-.13,1.25-.29,1.9-.53,2.13-.62,4.46-1.16,6.59-.24,.94-.21,1.91-.45,2.86-.18,.71-.24,1.53-.42,2.25-.03,.26-.06,.51-.1,.77-.18,.72-.2,1.5-.39,2.25-.46,1.83-.53,3.83-1,5.65-.13,.51-.14,1.04-.26,1.51-.03,.26-.06,.51-.1,.77-.21,.84-.27,1.79-.48,2.63-.04,.32-.09,.64-.13,.96-.14,.53-.14,1.13-.29,1.7-.45,1.76-.53,3.69-.96,5.46-.17,.7-.14,1.38-.32,2.09-.29,1.14-.36,2.42-.64,3.57-.05,.39-.11,.77-.16,1.16-.23,.91-.25,1.88-.48,2.83-.18,.72-.35,1.62-.42,2.38h-3.57c-2.12-17.47-4.24-34.95-6.36-52.42"></path>
      </g>
      <polygon class="q" points="163.73 64.5 179.63 64.5 179.63 67.81 173.98 67.81 173.98 116.93 169.64 116.93 169.64 67.81 163.73 67.81 163.73 64.5"></polygon>
      <polygon class="q" points="182.06 64.5 197.03 64.5 197.03 67.81 186.43 67.81 186.43 93.12 197.35 93.12 197.35 96.37 186.43 96.37 186.43 113.75 197.35 113.75 197.35 116.93 182.16 116.93 182.16 96.37 178.24 96.37 178.24 93.12 182.06 93.12 182.06 64.5"></polygon>
      <polygon class="q" points="216.06 64.5 220.27 64.5 220.27 113.75 230.77 113.75 230.77 116.93 216.06 116.93 216.06 64.5"></polygon>
      <g>
        <path class="q" d="M286.4,76.2h-4.05v-4.62c0-.79,.08-1.69-.23-2.18-.48-.78-1.36-1.3-2.35-1.57-1.73-.48-4.23,.31-4.91,1.28-.36,.52-.35,1.28-.35,2.18v20.01c.08,.39,.11,.79,.29,1.09,.79,1.49,4.29,1.43,5.27,1.57,1.76,.18,2.66,.41,3.69,1.04,.89,.54,1.5,1.24,1.8,2.52,.3,.93,.19,11.72,.19,12.69,0,.78,.03,1.55-.16,2.15-.68,2.1-2.57,3.36-4.66,4.05-.44,.14-.84,.17-1.32,.29-1.21,.32-3.2,.3-4.4-.03-.95-.26-1.82-.59-2.57-1.06-1.15-.73-2.15-1.88-2.6-3.31-.21-.68-.13-1.68-.13-2.54v-4.79h4.11v4.46c0,.7-.11,1.62,.06,2.22,.35,1.17,2.47,2.37,3.92,2.31,1.5,0,3.65-1.56,3.57-2.09,.27-.65,.13-11.91,.13-13.07-.1-1.39-1.39-1.66-2.86-1.8-.23,0-3.39-.28-3.92-.45-3.58-.86-4.28-3.28-4.46-3.95-.15-.56-.13-1.21-.13-1.9v-19.56c0-.83-.04-1.68,.16-2.31,.79-2.45,3.4-3.57,6.04-4.21,1.1-.26,3.68,.01,4.08,.06,1.13,.28,2.18,.58,3.05,1.12,1.1,.68,2.03,1.58,2.51,2.89,.28,.76,.23,1.81,.23,2.83v4.66Z"></path>
        <path class="q" d="M162.77,76.2h-4.05v-4.62c0-.79,.08-1.69-.23-2.18-.48-.78-1.36-1.3-2.35-1.57-1.72-.48-4.23,.31-4.91,1.28-.36,.52-.35,1.28-.35,2.18v20.01c.08,.39,.11,.79,.29,1.09,.79,1.49,4.28,1.43,5.27,1.57,1.76,.18,2.66,.41,3.69,1.04,.89,.54,1.5,1.24,1.8,2.52,.3,.93,.19,11.72,.19,12.69,0,.78,.03,1.55-.16,2.15-.68,2.1-2.57,3.36-4.66,4.05-.44,.14-.84,.17-1.32,.29-1.21,.32-3.2,.3-4.4-.03-.95-.26-1.82-.59-2.57-1.06-1.15-.73-2.15-1.88-2.6-3.31-.21-.68-.13-1.68-.13-2.54v-4.79h4.11v4.46c0,.7-.12,1.62,.06,2.22,.35,1.17,2.47,2.37,3.92,2.31,1.5,0,3.65-1.56,3.57-2.09,.27-.65,.13-11.91,.13-13.07-.1-1.39-1.38-1.66-2.86-1.8-.22,0-3.39-.28-3.92-.45-3.58-.86-4.28-3.28-4.47-3.95-.15-.56-.13-1.21-.13-1.9v-19.56c0-.83-.04-1.68,.16-2.31,.79-2.45,3.4-3.57,6.04-4.21,1.1-.26,3.68,.01,4.08,.06,1.13,.28,2.18,.58,3.05,1.12,1.1,.68,2.03,1.58,2.5,2.89,.28,.76,.23,1.81,.23,2.83v4.66Z"></path>
        <path class="q" d="M68.47,76.2h-4.05v-4.62c0-.79,.08-1.69-.23-2.18-.48-.78-1.36-1.3-2.34-1.57-1.73-.48-4.23,.31-4.91,1.28-.36,.52-.35,1.28-.35,2.18v20.01c.08,.39,.11,.79,.29,1.09,.79,1.49,4.29,1.43,5.27,1.57,1.76,.18,2.66,.41,3.69,1.04,.89,.54,1.5,1.24,1.8,2.52,.3,.93,.19,11.72,.19,12.69,0,.78,.03,1.55-.16,2.15-.68,2.1-2.57,3.36-4.66,4.05-.44,.14-.84,.17-1.32,.29-1.21,.32-3.2,.3-4.4-.03-.95-.26-1.82-.59-2.57-1.06-1.15-.73-2.15-1.88-2.6-3.31-.21-.68-.13-1.68-.13-2.54v-4.79h4.11v4.46c0,.7-.12,1.62,.06,2.22,.35,1.17,2.47,2.37,3.92,2.31,1.5,0,3.65-1.56,3.57-2.09,.27-.65,.13-11.91,.13-13.07-.1-1.39-1.38-1.66-2.86-1.8-.23,0-3.39-.28-3.92-.45-3.58-.86-4.28-3.28-4.46-3.95-.15-.56-.13-1.21-.13-1.9v-19.56c0-.83-.04-1.68,.16-2.31,.79-2.45,3.4-3.57,6.04-4.21,1.1-.26,3.68,.01,4.08,.06,1.13,.28,2.18,.58,3.05,1.12,1.1,.68,2.03,1.58,2.51,2.89,.28,.76,.22,1.81,.22,2.83v4.66Z"></path>
        <path class="q" d="M207.74,89.4c.22-.74,.33-1.52,.71-2.12,.07-.12,.21-.2,.29-.32h.19c.03,.06,.04,.05,.06,.13,.12,.2,.04,.8-.03,1.06-.21,.76-.8,2.07-1.35,2.44-.03,.03,0,0-.03,.03-.13-.39,.07-.91,.16-1.22m-1.83,4.56c-.01,.61-.1,1.29-.23,1.86-.13,.58,0,1.18-.13,1.77-.06,.27,0,.59-.06,.9-.13,.62-.1,1.4-.1,2.09,.01,.7,.02,1.39,.03,2.09,0,.25,.11,.65-.03,.83-.19,.39-1.33,.48-1.73,.22-.63-.39-.84-1.42-.84-2.44v-.9c.08-.34,.07-.71,.16-1.06,.35-1.28,.64-2.5,1.25-3.5,.33-.53,.72-.99,1.09-1.48,.12-.16,.34-.25,.45-.42h.1s0,0,.03,.03m4.18,1.22c-.09-.19-.26-.08-.48-.13-.53-.12-1.47-.05-1.86,.13-.02,.05,0,.03-.03,.06,.02,.4,.35,.4,.51,.64,.17,.24,.22,.6,.29,.93,.12,.55-.08,1.41-.19,1.8-.28,1-.51,1.9-.99,2.7-.2,.33-.51,.63-.68,.96-.07-.01-.08-.01-.13-.03,0-.43,.03-.9,.03-1.29,0-.35-.03-.79,.03-1.09,.06-.27-.02-.64,.03-.87v-.64c.05-.34,.02-.8,.1-1.12v-.48c.15-.68,.07-1.49,.23-2.15,.01-.18,.02-.36,.03-.55,.14-.6,.15-1.29,.29-1.86,.06-.23,.01-.44,.1-.64,.14-.34,.59-.52,.8-.8,.76-1,1.28-1.67,1.7-3.05,.17-.57,.24-1.43-.06-1.9-.85-.04-1.32,.71-1.7,1.25-.78,1.11-1.21,2.51-1.64,4.01-.15,.54-.14,1.2-.32,1.73-.1,.29-.48,.47-.71,.64-.34,.26-.67,.62-.93,.96-.12,.16-.33,.29-.45,.45-.76,1.01-1.44,2.05-1.96,3.31-.3,.72-.41,1.5-.61,2.31-.08,.35,.02,.68-.07,1.06-.28,1.23,.4,2.82,1.03,3.28,.8,.58,1.78,.21,2.44-.22,.18-.12,.39-.21,.51-.39h.16c.1,1.27,.5,2.24,1.19,2.92h.19c.06-.36-.11-.73-.19-1.06-.17-.66-.15-1.36-.19-2.12,0-.17-.1-.49-.03-.71,.07-.24,.32-.36,.45-.55,.28-.38,.55-.79,.8-1.19,.55-.87,1-1.84,1.41-2.83,.17-.41,.23-.8,.38-1.22,.19-.52,.32-1.14,.48-1.7,.04-.15,.11-.46,.03-.58"></path>
      </g>
      <path class="l" d="M208.79,42.74l.25-.04,.22-.14,.14-.22v-.25l-.02-.25v-1.26l.02-.34-.02-.27,.02-.25v-.22l-.02-.25,.02-.86-.04-.38,.04-.63-.02-1.39,.13-.4,.27-.09,.52-.04,.79,.02,.25-.11,.14-.43v-.29l-.13-.38-.41-.11h-.38l-.27-.04h-.54l-.25-.14-.11-.27-.02-.41,.05-.9,.07-.25,.09-.23,.14-.22,.18-.14,.23-.11,.36-.07,.38,.02,.25,.05,.25,.07,.31-.04,.2-.16,.18-.38,.11-.22-.04-.31-.16-.2-.23-.11-.7-.14-.29-.02-.36-.02-.36,.04-.27-.02-.22,.07-.23,.07-.25,.14-.22,.14-.18,.11-.2,.18-.15,.18-.16,.22-.18,.43-.09,.25-.07,.23-.05,.23-.04,.23-.04,.65v.5l-.14,.43-.29,.14-.27-.02-.29,.09-.14,.43v.25l.14,.38,.27,.16,.31,.02,.29,.09,.13,.38-.02,.27,.02,.97,.02,.23-.02,.41,.02,.22-.02,.74,.02,.23v.56l-.02,.25,.02,1.01-.04,.36,.02,.23v.88l.13,.23,.23,.14,.23-.04,.23,.02,.25,.04Zm-7.34-1.35l-.38-.02-.22-.09-.18-.14-.16-.14-.14-.23-.11-.25-.09-.2-.04-.27-.07-.23-.02-.27-.05-.43v-.29l-.02-.41,.04-.34-.02-.23,.04-.29v-.25l.05-.25,.04-.27,.16-.49,.09-.23,.16-.16,.14-.18,.18-.13,.22-.11,.38-.04,.34,.04,.25,.09,.18,.13,.31,.4,.11,.27,.09,.22,.16,1.03,.04,.88-.05,.9-.05,.27v.22l-.04,.23-.14,.47-.13,.23-.29,.41-.2,.11-.23,.07h-.34Zm.02,1.51l.65-.09h.23l.47-.22,.22-.13,.2-.16,.22-.14,.16-.18,.16-.22,.13-.2,.16-.22,.09-.27,.09-.2,.09-.27,.05-.27,.07-.23,.11-.72v-.29l.04-1.04-.02-.23v-.27l-.05-.47-.11-.54-.09-.25-.05-.22-.27-.72-.29-.41-.18-.14-.34-.34-.2-.13-.22-.07-.22-.13-.25-.07-.23-.05h-.27l-.74,.02-.23,.04h-.25l-.2,.07-.49,.22-.2,.13-.18,.16-.18,.2-.16,.13-.14,.25-.14,.16-.2,.45-.23,.74-.16,1.24-.02,.29,.02,.36-.02,.4,.04,.22,.04,.54,.09,.47,.05,.25,.07,.23,.05,.27,.09,.23,.22,.45,.13,.2,.31,.38,.16,.14,.23,.16,.38,.22,.45,.18,.27,.04,.22,.04,.4,.04Zm-6.48-.16l.49-.04,.25,.02,.2-.14,.11-.27-.05-.2,.02-.23-.04-.31v-.95l-.02-.29,.04-.4-.02-2.5-.02-.27,.02-.25-.02-1.13-.07-.5-.11-.25-.25-.43-.16-.22-.2-.11-.25-.11-.22-.13-.63-.04-.49,.04-.34,.09-.25,.05-.2,.07-.23,.13-.22,.16-.2,.07-.22,.04-.09-.18-.02-.49,.02-1.42-.02-.4,.02-.77-.04-.25v-.5l-.04-.22-.14-.22-.4-.05-.22-.02-.25,.02-.34-.05-.22,.13-.11,.29,.04,.23v.23l.05,.74-.04,.25,.02,.27v.25l-.02,.36,.02,.36-.02,.29,.02,.25v.49l-.02,.27,.02,.5-.02,.25,.02,2.41-.02,.27v.22l.02,.41,.02,2.12-.04,.38,.04,.63-.02,.36-.02,.27,.13,.23,.25,.16h.95l.25-.14,.11-.22v-.41l.02-.22-.02-.29,.02-.2v-.27l-.02-.23v-.9l-.02-.25,.04-.22-.04-.29v-.25l.02-.49-.02-.22,.02-.52-.02-.25,.02-.5-.02-.25,.13-.32,.2-.31,.2-.14,.22-.14,.25-.13,.23-.11h.4l.36,.07,.23,.09,.11,.2,.09,.2,.05,.25,.02,.27-.04,.86,.02,.27-.02,1.15,.02,.25v.29l-.02,.22v1.03l.02,.29-.02,.27,.02,.25,.04,.27-.02,.25,.02,.2,.05,.23,.14,.22,.25,.11,.23,.05Zm-9.93,.16h.34l.65-.11,.68-.2,.22-.14,.2-.22,.18-.14,.14-.23,.09-.22,.14-.18,.07-.27,.05-.2,.05-.25v-.36l-.02-.41-.04-.22-.07-.22-.34-.68-.18-.2-.36-.31-.18-.16-.2-.14-.23-.11-.31-.18-.34-.18-.2-.14-.25-.13-.2-.11-.27-.27-.23-.29-.02-.36,.02-.4,.16-.22,.23-.18,.36-.05h.41l.54,.14,.23,.09,.22,.13,.31,.04,.23-.2,.09-.25,.11-.25,.02-.31-.14-.23-.23-.16-.67-.29-.22-.07-.5-.02-.23-.05h-.38l-.25,.04h-.36l-.74,.31-.2,.14-.18,.16-.32,.43-.18,.5-.04,.22v.76l.11,.52,.22,.47,.32,.38,.18,.14,.2,.18,.41,.27,.22,.09,.36,.22,.34,.14,.18,.16,.23,.09,.2,.16,.16,.16,.16,.2,.13,.2,.04,.36-.04,.38-.05,.25-.16,.2-.2,.13-.22,.11-.38,.09-.36-.02-.23-.09-.25-.04-.43-.25-.22-.07-.2-.14-.27-.04-.2,.09-.25,.4-.11,.23v.29l.13,.23,.2,.16,.2,.14,.43,.2,.23,.13,.72,.16,.25,.02,.27,.05Zm-5.29-.16l.36-.18,.05-.22-.02-.74-.02-.23v-.27l-.02-.29,.02-.23-.02-.23,.02-1.4,.02-.22-.02-6.28-.02-.22-.02-.54,.04-.27-.02-.29-.04-.22,.02-.25-.02-.25-.16-.2-.41-.11h-.34l-.23-.02-.23,.02-.23,.14-.07,.22,.02,.25v.27l.02,.22,.04,.76-.02,.27,.02,.22v2.68l-.02,.25,.02,.65-.02,.25,.02,1.3-.02,.4,.04,.61-.04,.23,.02,2.05,.02,.25-.04,.29,.02,.25,.04,.23v.25l.02,.25,.14,.18,.29,.11h.34l.47,.05Zm-7.38-4.14l-.27-.11-.11-.23,.02-.23-.02-.29,.04-.49,.05-.23,.04-.29,.14-.5,.14-.16,.11-.22,.4-.29,.23-.09h.36l.38,.05,.23,.09,.18,.16,.11,.29,.04,.34-.05,.36-.05,.27-.05,.2-.11,.25-.27,.4-.2,.16-.2,.14-.43,.22-.25,.11-.45,.09Zm1.12,4.3l.41-.02,.23-.04,.74-.22,.22-.11,.56-.34,.29-.23,.11-.29-.09-.31-.14-.22-.14-.25-.23-.11-.25,.05-.59,.41-.22,.04-.23,.09-.61,.05-.38-.04-.25-.11-.23-.14-.16-.16-.25-.45-.07-.27,.09-.27,.25-.16,.22-.05,.25-.04,.5-.11,.83-.36,.31-.18,.22-.14,.4-.36,.16-.16,.31-.38,.14-.25,.09-.22,.14-.49,.04-.25,.02-.77-.04-.23-.07-.22-.09-.23-.11-.29-.49-.54-.23-.14-.45-.23-.49-.14-.22-.02-.4-.02-.36,.02-.52,.04-.25,.09-.23,.07-.22,.16-.43,.23-.18,.18-.29,.41-.25,.47-.2,.45-.22,1.01v.27l-.07,.5-.02,.63,.02,.67,.02,.25,.05,.29v.23l.14,.47,.04,.27,.2,.49,.38,.68,.18,.16,.16,.18,.4,.31,.45,.22,.27,.04,.23,.05,.27,.02,.36,.05Zm-10.69-.16l.36-.04h.23l.25-.02,.23-.11,.13-.38-.04-.9,.04-.36-.04-1.48,.02-.9-.02-.25,.04-.83-.04-.92,.11-.32,.16-.31,.22-.14,.2-.11,.23-.09,.22-.07,.36-.05,.38,.07,.22,.07,.14,.18,.09,.22,.04,.27-.02,.29,.02,.38-.02,2.41,.04,.25-.02,2.32,.05,.47,.14,.2,.27,.11,.25-.02,.36,.04,.36-.04,.22-.09,.09-.22-.05-.31-.02-.47,.02-1.03-.02-.23v-.4l-.02-.88,.02-.27v-.99l-.02-.29v-.25l.02-.23v-.9l-.07-.59-.05-.25-.05-.27-.13-.25-.14-.22-.36-.31-.22-.07-.25-.13-.65-.05h-.36l-.5,.11-.25,.09-.23,.11-.34,.2-.31,.27-.23,.04-.23-.14-.16-.22-.23-.16-.23-.14-.25-.07-.25-.05-.4-.04-.76,.11-.38,.11-.43,.22-.47,.29-.22,.05-.09-.18-.2-.29-.4-.14-.41,.02-.25-.02-.23,.16-.05,.22,.07,.5,.02,.25-.02,.25,.04,.29v.85l-.02,.27v.36l-.02,.54,.02,.47-.02,.36,.02,.41-.02,.52,.04,.59-.04,.36v.65l.02,.4-.02,.25,.02,.49,.13,.29,.25,.07,.22,.02,.49,.02,.25-.02,.22-.09,.14-.25v-.31l-.02-.22,.02-1.53-.02-.23,.04-.34-.04-.4,.02-.65,.02-.23v-.23l-.04-.38v-.74l.02-.25v-.29l.09-.32,.18-.27,.18-.16,.22-.13,.45-.18,.4-.04,.34,.05,.22,.09,.13,.2,.09,.25,.05,.23,.02,.23-.04,.77,.02,1.1,.02,.23-.04,.65,.02,.29-.02,.22v.4l.02,.22-.02,.38,.02,.31-.02,1.1,.13,.41,.38,.14Zm-12.53,0l.36-.04h.23l.25-.02,.23-.11,.13-.38-.04-.9,.04-.36-.04-1.48,.02-.9-.02-.25,.04-.83-.04-.92,.11-.32,.16-.31,.22-.14,.2-.11,.23-.09,.22-.07,.36-.05,.38,.07,.22,.07,.14,.18,.09,.22,.04,.27-.02,.29,.02,.38-.02,2.41,.04,.25-.02,2.32,.05,.47,.14,.2,.27,.11,.25-.02,.36,.04,.36-.04,.22-.09,.09-.22-.05-.31-.02-.47,.02-1.03-.02-.23v-.4l-.02-.88,.02-.27v-.99l-.02-.29v-.25l.02-.23v-.9l-.07-.59-.05-.25-.05-.27-.13-.25-.14-.22-.36-.31-.22-.07-.25-.13-.65-.05h-.36l-.5,.11-.25,.09-.23,.11-.34,.2-.31,.27-.23,.04-.23-.14-.16-.22-.23-.16-.23-.14-.25-.07-.25-.05-.4-.04-.76,.11-.38,.11-.43,.22-.47,.29-.22,.05-.09-.18-.2-.29-.4-.14-.41,.02-.25-.02-.23,.16-.05,.22,.07,.5,.02,.25-.02,.25,.04,.29v.85l-.02,.27v.36l-.02,.54,.02,.47-.02,.36,.02,.41-.02,.52,.04,.59-.04,.36v.65l.02,.4-.02,.25,.02,.49,.13,.29,.25,.07,.22,.02,.49,.02,.25-.02,.22-.09,.14-.25v-.31l-.02-.22,.02-1.53-.02-.23,.04-.34-.04-.4,.02-.65,.02-.23v-.23l-.04-.38v-.74l.02-.25v-.29l.09-.32,.18-.27,.18-.16,.22-.13,.45-.18,.4-.04,.34,.05,.22,.09,.13,.2,.09,.25,.05,.23,.02,.23-.04,.77,.02,1.1,.02,.23-.04,.65,.02,.29-.02,.22v.4l.02,.22-.02,.38,.02,.31-.02,1.1,.13,.41,.38,.14Zm-11.16,.14l.92-.13,.47-.2,.2-.16,.22-.13,.2-.2,.18-.09,.11,.18,.05,.23,.18,.18,.29,.13,.5-.02,.25,.02,.25-.11,.07-.25v-.27l-.04-.23v-.76l-.04-.41,.02-.59-.02-.27v-.49l.02-.49-.04-.54,.04-.97-.02-.29,.02-.38-.02-.23,.02-.36-.02-.25,.02-.31-.02-.94-.13-.27-.23-.16-.32-.02-.4,.04h-.25l-.22,.14-.11,.23-.02,.27v.4l-.02,.23,.04,1.17-.02,.22v.52l.02,.25-.02,.25,.02,.25-.02,.5,.02,.38-.02,1.19-.07,.32-.14,.34-.18,.13-.18,.14-.52,.25-.85,.04-.23-.11-.16-.22-.11-.22-.05-.22-.04-.25-.04-.38,.02-.77-.02-1.31,.02-.36-.02-.29,.02-1.17-.02-.29v-.5l-.04-.54-.02-.25-.16-.25-.27-.09-.36-.05-.38,.05-.22-.02-.23,.11-.05,.27,.02,1.71,.04,.29v.76l-.02,.27,.02,.27-.02,.23,.02,.63v.4l-.04,.25,.04,.5-.02,.43v.4l.04,.29,.04,.23,.07,.27,.11,.25,.09,.23,.13,.25,.18,.18,.18,.14,.2,.14,.49,.14,.25,.04,.36,.04Zm-11.54-.14l.34-.02,.25-.04h.31l.29-.11,.11-.32,.04-4.81,.16-.27,.25-.14,.7-.04,.45,.04h.27l.4,.04h.31l.41-.07,.29,.13,.16,.32-.04,.88,.04,.31-.04,.32,.02,.99-.04,.47,.05,.25-.04,.32,.02,.27v.56l.09,.52,.18,.27,.25,.13,.32-.04,.31,.02h.29l.22-.18,.14-.25-.02-.29-.04-.29v-.25l-.04-.22,.02-2.56,.04-.29-.05-.59,.02-.9-.02-.23v-1.19l.04-.23-.02-.65,.04-.59-.05-.58,.02-.25-.04-.31,.02-.92-.02-.23,.04-.56v-.34l.02-.25-.16-.27-.27-.14-.61-.04-.31-.04-.25,.2-.14,.29,.02,.23-.04,.29,.04,.86-.02,1.13,.02,.32-.02,.54,.02,.25-.04,.23,.04,.29-.05,.29-.11,.32-.29,.18-.25-.02-.32-.04-1.1,.07-.29-.02-.29-.05-.27,.02-.29-.14-.16-.31v-3.19l.02-.31-.02-.31,.02-.27-.02-.27-.07-.23-.16-.22-.31-.14-.29,.02-.41-.02-.4,.14-.13,.27-.02,.29,.09,.83v.29l-.04,.27,.02,.31-.04,.36,.02,.47-.02,.63,.04,.77-.04,1.03,.07,1.58-.04,.25-.04,.88,.05,.27-.05,.77,.05,.45-.05,.59,.04,.27-.02,.29,.04,.56-.05,.29,.04,.32,.16,.27,.23,.18Z"></path>
      <path class="l" d="M319.45,104.04c0,13.85-6.84,32.45-22.71,41.01v9.21c-14.17,2.93-24.56,11.27-28.05,23.35h-14.1c-16.15,4.58-52.17,11.72-87.75,11.62-34.03-.1-67.67-7.24-83.11-11.62h-14.1c-3.49-12.09-13.88-20.42-28.05-23.35v-9.21c-15.87-8.56-22.71-27.16-22.71-41.01s6.84-32.45,22.71-41.01v-9.21c14.17-2.93,24.56-11.27,28.05-23.35h14.1c14.9-3.54,48.13-11.49,81.97-11.61,36.14-.12,72.97,7.83,88.89,11.61h14.1c3.49,12.09,13.88,20.42,28.05,23.35v9.21c15.87,8.57,22.71,27.17,22.71,41.01m4.88,.01c-.64-13.85-6.48-33.33-22.71-43.07v-10.45c-15.59-2-26.7-10.74-28.9-24.11h-16.59c-18.71-4.48-54.79-12.09-90.3-11.95-33.29,.13-66.09,7.75-83.63,11.95h-16.59c-2.2,13.38-13.31,22.12-28.9,24.11v10.45c-16.23,9.74-22.07,29.22-22.71,43.07,.64,13.85,6.48,33.33,22.71,43.07v10.44c15.59,2,26.7,10.74,28.9,24.12h16.59c17.55,4.76,51.02,11.69,84.82,11.79,35.23,.1,70.82-6.82,89.11-11.79h16.59c2.2-13.38,13.31-22.12,28.9-24.12v-10.44c16.23-9.74,22.07-29.22,22.71-43.07"></path>
      <g>
        <path class="p" d="M171.71,145.01c1.05-.42,1.84-.87,2.38-1.36,.36-.35,.56-.69,.57-1.04,0-.26-.06-.48-.2-.64-.14-.16-.33-.25-.56-.25-.24,0-.47,.07-.71,.24-.31,.22-.58,.56-.8,1.01-.32,.67-.55,1.35-.69,2.05m3.33,1.44c.1,.14,.2,.28,.3,.42-1.62,1.38-2.98,2.06-4.1,2.03-.45-.01-.79-.17-1.03-.47-.23-.3-.34-.78-.32-1.43,.03-1.32,.49-2.62,1.36-3.9,.99-1.46,2.14-2.17,3.46-2.13,.46,.01,.81,.13,1.04,.36,.23,.23,.34,.53,.33,.91-.01,.4-.18,.79-.48,1.17-.31,.38-.84,.76-1.6,1.16-.38,.19-1.19,.53-2.43,1.03-.07,.33-.11,.65-.12,.95-.01,.44,.05,.74,.19,.92,.14,.18,.35,.27,.62,.28,.26,0,.55-.06,.87-.19,.43-.18,1.06-.55,1.9-1.11"></path>
        <path class="p" d="M181.47,140.94c.58,.03,1.02,.15,1.32,.38,.3,.23,.45,.48,.43,.76,0,.17-.08,.31-.22,.42-.14,.12-.3,.17-.49,.16-.12,0-.23-.04-.32-.09-.09-.06-.21-.19-.37-.41-.3-.41-.6-.63-.91-.64-.27-.01-.51,.08-.72,.26-.21,.19-.32,.42-.34,.71-.01,.25,.04,.5,.16,.74,.12,.24,.43,.64,.92,1.19,.68,.76,1,1.46,.97,2.11-.03,.65-.35,1.21-.95,1.67-.6,.46-1.35,.68-2.26,.64-.76-.03-1.32-.2-1.68-.51-.36-.31-.53-.69-.51-1.12,0-.21,.08-.39,.23-.53,.15-.14,.32-.2,.53-.19,.18,0,.33,.07,.46,.19,.12,.12,.18,.25,.18,.41,0,.06-.01,.14-.02,.24,0,.08-.01,.15-.01,.2,0,.2,.07,.38,.24,.53,.17,.15,.4,.23,.7,.24,.34,.01,.65-.03,.92-.13,.26-.1,.48-.27,.63-.49,.16-.22,.24-.45,.25-.68,.01-.22-.05-.44-.18-.67-.13-.23-.42-.61-.88-1.14-.64-.74-.94-1.44-.91-2.1,.02-.6,.3-1.12,.83-1.55,.53-.43,1.19-.63,1.98-.6"></path>
        <path class="p" d="M188.72,137.11c.21,.01,.37,.08,.49,.22,.12,.14,.18,.3,.17,.5-.02,.27-.13,.5-.34,.7-.21,.19-.44,.29-.69,.27-.2-.01-.35-.08-.48-.22-.12-.14-.18-.31-.16-.52,.02-.28,.12-.51,.32-.69,.2-.18,.43-.27,.69-.25m-4.17,5.91l-.41-.33c.68-.65,1.3-1.1,1.85-1.36,.55-.26,1.01-.38,1.39-.36,.21,0,.36,.06,.47,.15,.11,.09,.15,.21,.14,.36-.01,.18-.26,.92-.76,2.24-.81,2.15-1.22,3.45-1.25,3.89,0,.08,.01,.16,.05,.22,.04,.06,.09,.09,.14,.1,.2,.01,.75-.34,1.64-1.06,.12,.12,.24,.25,.35,.37-.92,.74-1.59,1.22-2.01,1.42-.42,.2-.75,.29-1,.28-.22-.01-.39-.09-.52-.23-.12-.14-.18-.33-.17-.57,.04-.77,.62-2.62,1.75-5.57,.05-.14,.08-.26,.09-.37,0-.12-.05-.19-.16-.19-.13,0-.28,.04-.45,.13-.17,.09-.55,.38-1.15,.89"></path>
        <path class="p" d="M168.59,145.34c-.11-.13-.25-.2-.43-.21-.18-.01-.35,.04-.49,.16-.1,.08-.16,.17-.2,.26-.04,.1-.05,.28-.05,.55,0,.28-.04,.51-.11,.69-.27,.68-2.26,1.69-2.15,.21,0-.04,.17-.81,.16-.85h0c.15-.76,.42-1.84,.84-3.35,.54-1.99,.86-3.18,.94-3.57,.08-.39-.05-.96-.55-1.38-.25-.21-1.53-.29-2.34,.21-.81,.5-2.28,1.7-3.36,2.87,.26-.96,.68-2.58,.5-2.74,0-.42-.62-.63-.94-.62-1.26,.06-2.57,.98-4.81,3.41,.06-.47,.19-1.25,.38-2.05,.13-.54,.19-.91,.18-1.1-.01-.15-.07-.26-.18-.34-.11-.08-.27-.11-.48-.1-.51,.03-1.54,.18-2.6,.54-3.11,1.2-3.5,2.89-3.23,3.52,.27,.63,.76,1.12,1.47,1.46,.52,.25,.97,.34,1.35,.29,.37-.06,.62-.21,.74-.46,.07-.15,.07-.31,0-.48-.07-.17-.18-.29-.36-.37-.11-.05-.22-.07-.32-.07-.1,0-.28,.07-.52,.19-.46,.23-.83,.27-1.11,.14-.24-.11-.41-.3-.51-.57-.62-.98,.86-1.68,1-1.76,.02,0,.02,0,.04-.02,.26-.1,.17-.06,0-.02,.9-.52,1.78-.87,2.07-.89,.18,0,.86,.06,.87,.27,0,.17-.18,1.54-.56,3.51-.43,2.27-.85,4.55-1.28,6.82,.7-.04,.96-.06,1.66-.1,.28-1.61,.57-3.22,.87-4.83,.23-1.29,.41-2.26,.8-2.91,.4-.65,1.06-1.33,2.01-2.05,.54-.42,.94-.64,1.21-.66,.15,0,.26,.03,.35,.1,.08,.08,.13,.19,.13,.34,0,.09-.06,.46-.19,1.08-.6,2.91-1.18,5.82-1.77,8.73,.69-.03,.94-.04,1.63-.08,.25-1.49,.65-3.4,1.2-5.76,.25-1.08,1-1.9,1.37-2.4,.54-.73,1.23-1.36,2.05-1.89,.41-.25,.73-.39,.98-.4,.3-.01,.45,.14,.46,.46,.01,.34-.2,1.31-.64,2.92-.58,2.15-.92,3.53-1.03,4.14-.11,.61-.16,1.15-.14,1.59,.02,.49,.15,.87,.38,1.14,.23,.27,.5,.39,.79,.38,.39-.02,.86-.2,1.42-.54,1.24-.83,2.48-2.21,2.58-2.57,.11-.36,.07-.65-.1-.86"></path>
      </g>
    </g>
  </g>
</svg>
