<svg xmlns="http://www.w3.org/2000/svg" id="uuid-fc109fab-f2c7-449c-befc-9628764c5314" viewBox="0 0 632.58 229.81"><defs><style>.uuid-556ec386-77ed-48ab-98d2-916644da6233{fill:#fff;}.uuid-28d7ed98-e3a7-45ca-8b1a-eb7fe1676227{fill:#ffd828;}</style></defs><rect width="632.58" height="229.81"></rect><polygon id="uuid-9238c3f2-b8c1-4e5b-b196-0fc10a8cf091" class="uuid-28d7ed98-e3a7-45ca-8b1a-eb7fe1676227" points="145 105.98 145 70 70 70 70 98.01 109.12 125.98 126.15 126 80.7 92.29 80.7 80.7 134.29 80.7 134.29 98.01 145 105.98"></polygon><polygon id="uuid-b240776e-2dbd-44e4-af3c-bb6bdaba57a7" class="uuid-28d7ed98-e3a7-45ca-8b1a-eb7fe1676227" points="145 145 145 116.67 107.5 89.32 89.67 89.15 134.29 122.43 134.29 134.29 80.7 134.29 80.7 116.19 70 108.78 70 145 145 145"></polygon><path class="uuid-556ec386-77ed-48ab-98d2-916644da6233" d="m190.57,126.94h0v-13.09c0-1.04-.2-1.74-.59-2.09-.39-.35-1.1-.53-2.13-.53h-7.86c-6.66,0-9.99-3.23-9.99-9.7h0v-15.04c0-6.4,3.49-9.6,10.48-9.6h10.67c6.98,0,10.47,3.2,10.47,9.6h0v8.54h-11.25v-6.99c0-1.03-.19-1.73-.58-2.08-.39-.35-1.1-.53-2.13-.53h-3.69c-1.1,0-1.84.18-2.23.53-.39.35-.58,1.05-.58,2.08h0v12.32c0,1.03.19,1.73.58,2.09.39.35,1.13.53,2.23.53h7.66c6.79,0,10.19,3.17,10.19,9.51h0v16c0,6.41-3.53,9.61-10.58,9.61h-10.47c-7.05,0-10.57-3.2-10.57-9.61h0v-8.44h11.15v6.89c0,1.03.19,1.73.58,2.09.39.35,1.13.53,2.23.53h3.69c1.03,0,1.74-.18,2.13-.53.39-.36.59-1.06.59-2.09Zm29.55-15.91v18.53h18.63v8.54h-29.88v-61.21h29.1v8.54h-17.85v16.97h15.04v8.63h-15.04Zm60.4,27.07h-11.25l-2.33-12.71h-13.38l-2.14,12.71h-11.15l12.32-61.21h15.03l12.9,61.21Zm-20.47-50.44l-5.04,29.29h10.38l-5.34-29.29Zm25.39,50.44v-61.21h23.28c7.05,0,10.57,3.2,10.57,9.6h0v42c0,6.41-3.52,9.61-10.57,9.61h-23.28Zm22.6-10.77h0v-39.67c0-1.04-.19-1.74-.58-2.09-.39-.35-1.1-.53-2.14-.53h-8.73v44.91h8.73c1.04,0,1.75-.18,2.14-.54.39-.35.58-1.05.58-2.08Zm29.07-32.11v42.88h-9.89v-61.21h12.22l10.28,36.37,10.28-36.37h12.22v61.21h-9.79v-42.98l-8.15,29.69h-9.02l-8.15-29.59Zm54.78,15.81v18.53h18.62v8.54h-29.88v-61.21h29.1v8.54h-17.84v16.97h15.03v8.63h-15.03Zm38.86,3.2h-3.68v23.87h-11.16v-61.21h22.51c7.05,0,10.57,3.2,10.57,9.6h0v18.14c0,5.31-2.36,8.41-7.08,9.31h0l10.18,24.16h-12.03l-9.31-23.87Zm4.37-28.8h-8.05v20.56h8.05c1.03,0,1.74-.18,2.13-.53.39-.36.58-1.06.58-2.09h0v-15.33c0-1.03-.19-1.73-.58-2.08-.39-.35-1.1-.53-2.13-.53h0Zm32.75,25.6v18.53h18.63v8.54h-29.88v-61.21h29.1v8.54h-17.85v16.97h15.04v8.63h-15.04Zm47.7,5.82v-39.96h10.18v61.21h-10.47l-13.1-40.55v40.55h-10.28v-61.21h10.77l12.9,39.96Zm14.42-39.96h32.59v8.54h-10.76v52.67h-11.16v-52.67h-10.67v-8.54Z"></path></svg>