<svg width="32" height="37" viewBox="0 0 32 37" fill="none" xmlns="http://www.w3.org/2000/svg">
<path d="M11.1644 0.498516C10.88 0.711849 10.6667 1.56518 10.6667 2.27629C10.6667 3.20074 11.2356 3.55629 12.8 3.55629C14.7911 3.55629 14.9333 3.69851 14.9333 6.40074C14.9333 9.10296 14.7911 9.24518 12.7289 9.24518C10.88 9.24518 10.5956 9.45852 10.8089 10.8096C10.9511 12.0185 11.5911 12.5163 13.0133 12.6585C14.72 12.8718 14.9333 13.1563 14.9333 15.7163C14.9333 18.3474 14.7911 18.4896 12.7289 18.4896C10.88 18.4896 10.5956 18.703 10.8089 20.0541C10.9511 21.263 11.5911 21.7607 13.0133 21.903C14.9333 22.1163 14.9333 22.1874 14.9333 27.8052V33.423H12.0889H9.24444V28.4452C9.24444 23.6807 9.17333 23.4674 7.53778 23.4674C6.25778 23.4674 5.76 23.8941 5.54667 25.0318C5.40444 26.383 4.83556 26.7385 2.63111 26.8807C0.64 27.023 0 27.4496 0 28.4452C0 29.4407 0.64 29.8674 2.70222 30.0096C5.12 30.223 5.33333 30.3652 5.54667 32.7118C5.90222 36.623 6.89778 36.9785 18.4889 36.9785C31.8578 36.9785 32 36.9074 32 29.0852V23.4674H29.8667C28.0889 23.4674 27.7333 23.7518 27.7333 25.2452C27.7333 26.8096 27.4489 27.023 25.2444 27.023C23.2533 27.023 22.7556 27.3074 22.7556 28.4452C22.7556 29.583 23.2533 29.8674 25.2444 29.8674C27.4489 29.8674 27.7333 30.0807 27.7333 31.6452C27.7333 33.3518 27.52 33.423 23.4667 33.423H19.2V27.7341V22.0452H21.4044C26.0978 22.0452 26.3111 21.6185 26.3111 11.1652C26.3111 4.76518 26.0267 1.42296 25.4578 0.854069C24.5333 -0.0703735 12.0178 -0.35482 11.1644 0.498516ZM22.7556 11.023V18.4896H20.9778H19.2V11.023V3.55629H20.9778H22.7556V11.023Z" fill="white"/>
</svg>
